<svg xmlns="http://www.w3.org/2000/svg" width="1024" height="1024" viewBox="0 0 1024 1024">
<g>
<path d="M 465.25 738.59 C460.34,739.93 449.67,740.19 392.00,740.39 C354.88,740.52 320.90,740.32 316.50,739.94 C307.74,739.19 300.76,736.92 289.12,731.05 C271.80,722.31 257.58,704.98 252.55,686.50 C249.51,675.31 249.07,655.70 249.02,527.90 C249.00,457.73 248.72,400.05 248.41,399.74 C248.10,399.43 245.78,400.09 243.26,401.21 C233.71,405.43 218.48,401.95 208.99,393.37 C202.28,387.31 192.16,373.52 187.43,364.00 C174.42,337.78 170.91,307.44 177.58,278.83 C180.30,267.16 181.44,264.84 182.29,269.25 C182.67,271.18 182.75,271.11 182.86,268.75 C182.94,267.24 182.57,266.00 182.04,266.00 C181.11,266.00 183.19,260.28 186.78,253.00 C191.09,244.24 201.77,229.44 209.28,221.82 C217.14,213.84 226.18,206.50 228.15,206.50 C228.66,206.50 229.39,206.02 229.79,205.43 C232.16,201.88 260.55,189.51 263.62,190.68 C264.88,191.17 265.11,190.99 264.50,190.00 C263.89,189.02 264.12,188.83 265.34,189.30 C266.25,189.65 267.00,189.57 267.00,189.12 C267.00,188.12 288.69,185.76 297.30,185.82 C305.39,185.88 319.12,187.62 326.37,189.51 C338.45,192.65 363.00,204.45 363.00,207.10 C363.00,207.66 363.36,207.90 363.79,207.63 C364.23,207.36 367.60,209.70 371.28,212.82 C385.20,224.62 390.41,233.98 389.85,246.18 C389.68,249.86 389.87,253.20 390.28,253.61 C390.68,254.01 414.07,254.41 442.26,254.48 L 493.50 254.61 L 509.14 261.94 L 512.95 259.53 C517.72,256.52 526.13,254.04 533.70,253.41 C536.89,253.14 540.62,252.76 542.00,252.56 C555.98,250.55 568.94,248.95 575.72,248.39 L 583.94 247.72 L 585.54 242.22 C587.44,235.66 589.29,232.61 593.99,228.21 C597.73,224.71 604.99,220.44 605.02,221.73 C605.02,222.15 605.43,221.87 605.92,221.10 C606.65,219.94 612.44,219.68 638.67,219.64 C670.17,219.59 670.59,219.62 675.41,221.96 C684.78,226.49 690.88,233.89 693.33,243.70 C694.53,248.49 694.54,248.50 698.51,248.28 C708.18,247.73 754.79,254.42 760.70,257.20 C769.80,261.47 778.97,273.72 778.99,281.63 C779.00,283.35 779.56,285.19 780.25,285.71 C780.94,286.24 787.69,288.13 795.26,289.92 C817.59,295.19 825.56,300.61 830.01,313.52 C832.64,321.16 832.51,327.30 829.45,340.00 C828.06,345.77 826.91,351.29 826.90,352.25 C826.88,353.21 826.41,354.00 825.83,354.00 C825.26,354.00 825.03,354.64 825.33,355.42 C825.82,356.69 821.54,377.52 819.12,385.71 C817.92,389.75 818.68,392.76 821.09,393.53 C822.12,393.85 823.74,395.44 824.70,397.06 C825.65,398.68 826.73,400.00 827.09,400.00 C828.41,400.00 832.18,410.39 832.69,415.39 C832.97,418.20 832.29,427.02 831.17,435.00 C830.05,442.98 828.62,453.77 827.99,459.00 C827.36,464.23 825.79,475.25 824.48,483.50 C823.18,491.75 821.18,507.05 820.03,517.50 C818.88,527.95 817.03,541.90 815.92,548.50 C814.13,559.17 810.28,586.89 805.44,624.00 C804.55,630.88 801.81,650.67 799.37,668.00 C795.25,697.18 794.67,700.04 791.45,706.88 C786.35,717.72 777.50,726.16 764.34,732.74 C750.70,739.56 742.22,741.13 732.00,738.72 C726.24,737.37 723.73,736.51 717.80,733.87 C709.60,730.22 692.41,725.80 677.00,723.38 C663.38,721.23 622.89,720.82 614.44,722.75 C611.66,723.38 605.36,724.39 600.44,725.00 C595.53,725.60 589.03,726.73 586.00,727.50 C582.97,728.27 579.38,729.13 578.00,729.41 C576.62,729.69 569.88,732.00 563.01,734.54 C556.15,737.07 548.37,739.41 545.74,739.72 C535.10,740.98 513.79,732.17 502.34,721.79 C499.82,719.50 498.82,719.87 490.66,726.12 C484.43,730.89 473.10,736.45 465.25,738.59 ZM 311.24 723.01 C318.11,724.83 322.24,724.92 388.50,724.71 L 458.50 724.50 L 465.00 722.16 C478.94,717.15 491.31,707.05 498.00,695.24 C499.92,691.84 501.82,689.05 502.20,689.03 C502.59,689.01 503.21,690.69 503.58,692.75 C505.41,703.09 514.41,712.92 527.82,719.24 C540.05,725.00 544.17,725.15 556.51,720.29 C606.85,700.45 674.70,700.16 724.63,719.55 C734.92,723.55 737.27,724.11 742.24,723.77 C749.77,723.25 763.36,716.47 770.18,709.83 C778.30,701.92 778.71,700.42 784.51,657.50 C789.09,623.58 794.02,587.65 795.00,581.00 C795.87,575.07 798.62,554.84 802.60,525.00 C803.44,518.67 805.21,505.85 806.52,496.50 C812.96,450.77 816.38,424.04 816.37,419.50 C816.36,410.52 812.24,405.86 803.01,404.39 C801.54,404.15 800.50,404.11 799.90,403.57 C798.56,402.37 799.40,398.74 802.55,385.18 C802.81,384.02 803.10,382.80 803.40,381.50 L 804.11 378.43 C815.04,331.08 816.54,324.57 814.65,319.27 C814.31,318.32 813.86,317.40 813.33,316.29 C811.07,311.52 807.82,310.21 782.66,303.92 L 761.83 298.71 L 762.51 291.91 C763.37,283.29 762.06,279.19 756.94,274.57 C754.77,272.60 752.63,271.00 752.18,271.00 C751.73,271.00 740.82,269.62 727.93,267.92 C715.05,266.23 702.35,265.04 699.72,265.28 C692.12,265.97 688.97,269.93 686.64,281.72 C685.51,287.44 685.46,287.50 682.00,287.50 L 678.50 287.50 L 678.00 267.00 C677.69,254.11 677.07,245.76 676.34,244.50 C675.70,243.40 673.75,241.15 672.02,239.50 L 668.87 236.50 L 641.43 236.20 C616.02,235.93 613.67,236.05 609.58,237.86 C601.68,241.36 601.57,241.80 601.00,271.95 L 600.50 298.50 L 594.55 298.50 L 593.34 288.21 C591.85,275.50 590.75,272.10 587.02,268.52 C582.78,264.46 578.05,264.38 551.08,267.92 C525.59,271.27 521.96,272.38 518.15,278.00 C515.94,281.27 515.82,282.13 516.39,291.00 C516.72,296.23 517.27,303.00 517.61,306.06 L 518.24 311.61 L 514.25 312.81 C514.00,312.88 513.75,312.96 513.51,313.03 C511.03,313.78 509.54,314.23 508.61,313.70 C507.13,312.84 507.11,309.44 506.81,300.64 C506.38,288.10 506.17,286.96 503.36,281.89 C500.96,277.57 499.30,275.95 495.00,273.75 L 489.64 271.00 L 422.32 271.00 C385.29,271.00 355.00,270.65 355.00,270.22 C355.00,269.80 358.41,266.09 362.57,261.97 C371.52,253.15 373.00,250.65 373.00,244.44 C373.00,237.98 370.12,233.38 361.63,226.27 C348.24,215.06 330.70,206.84 314.00,203.95 C304.15,202.25 284.49,202.47 274.72,204.39 C259.21,207.43 240.29,216.76 227.51,227.65 C201.51,249.82 187.51,283.98 190.96,316.81 C193.09,337.02 198.44,352.57 208.04,366.46 C215.12,376.71 221.99,383.45 227.49,385.55 C235.22,388.50 238.41,386.89 252.50,372.88 L 264.50 360.95 L 265.03 518.22 C265.56,674.05 265.59,675.56 267.64,681.58 C274.48,701.62 291.48,717.78 311.24,723.01 ZM 553.25 707.14 C547.60,709.26 542.87,710.99 542.74,710.98 C541.47,710.85 530.49,705.85 527.71,704.13 C523.26,701.38 518.18,695.68 517.55,692.73 C516.87,689.55 512.60,659.41 507.97,625.00 C505.78,608.78 503.79,594.60 503.55,593.50 C503.30,592.40 501.52,579.80 499.59,565.50 C497.66,551.20 493.83,523.08 491.09,503.00 C488.34,482.92 485.39,461.10 484.53,454.50 C483.67,447.90 482.30,437.55 481.49,431.50 C480.68,425.45 480.01,420.16 480.01,419.75 C480.00,419.34 485.40,419.00 492.00,419.00 C500.93,419.00 504.00,418.68 504.00,417.75 C504.01,417.06 499.91,398.13 494.90,375.69 C489.89,353.24 485.95,334.74 486.15,334.58 C486.58,334.23 528.73,324.18 531.47,323.77 C533.81,323.43 533.78,321.71 531.07,300.50 C530.09,292.80 529.59,286.15 529.96,285.73 C530.93,284.63 577.30,278.88 578.05,279.77 C578.40,280.17 579.45,287.48 580.39,296.00 C581.34,304.52 582.46,311.85 582.88,312.28 C583.31,312.70 590.59,312.93 599.08,312.78 L 614.50 312.50 L 614.76 281.25 L 615.03 250.00 L 663.97 250.00 L 664.50 302.20 L 680.97 302.35 L 697.45 302.50 L 700.51 279.50 L 703.51 279.69 C708.16,279.99 748.46,285.15 748.82,285.49 C748.99,285.66 747.55,298.78 745.62,314.65 C741.34,349.83 738.67,376.01 739.31,376.64 C739.57,376.90 741.00,371.80 742.49,365.31 C746.05,349.74 752.80,321.48 754.07,316.75 C754.83,313.92 755.60,313.00 757.18,313.00 C758.34,313.00 768.89,315.34 780.64,318.20 C795.87,321.90 802.00,323.80 802.00,324.80 C802.00,326.35 788.67,384.55 783.97,403.50 C782.34,410.10 781.00,416.29 781.00,417.25 C781.00,418.81 782.20,419.00 792.14,419.00 L 803.27 419.00 L 802.61 423.75 C802.25,426.36 799.48,446.95 796.44,469.50 C793.41,492.05 788.72,526.47 786.02,546.00 C776.53,614.49 774.99,625.71 771.55,651.00 C765.67,694.38 765.96,692.84 762.57,697.83 C759.43,702.46 751.95,707.38 744.12,709.96 C740.56,711.14 739.68,710.97 731.06,707.53 C703.05,696.32 669.86,691.17 633.00,692.33 C602.01,693.30 578.45,697.67 553.25,707.14 ZM 573.07 897.39 C567.19,899.13 554.05,899.40 547.69,897.90 C541.79,896.51 529.70,890.61 526.78,887.69 C525.33,886.24 523.38,883.75 522.44,882.17 C520.81,879.40 520.35,879.25 511.62,878.70 C506.60,878.38 500.40,877.39 497.83,876.50 C493.42,874.96 492.79,874.97 486.33,876.85 C470.39,881.48 456.94,880.21 441.75,872.64 L 432.79 868.17 L 429.85 871.52 C425.05,876.98 419.53,878.50 404.50,878.50 C394.42,878.50 390.30,878.08 386.17,876.64 C380.98,874.84 380.72,874.84 376.17,876.64 C371.96,878.32 368.61,878.49 341.96,878.35 C317.55,878.23 311.76,877.93 308.64,876.62 C305.14,875.16 304.34,875.18 297.68,876.94 C286.82,879.82 280.43,880.23 271.50,878.63 C261.53,876.86 253.45,873.84 246.98,869.48 L 241.98 866.12 L 233.24 870.58 C219.91,877.37 215.60,878.11 188.21,878.32 C161.91,878.52 158.31,877.97 152.43,872.80 C146.61,867.69 145.37,864.07 144.17,848.50 C143.12,834.90 143.33,796.52 144.55,780.65 C145.49,768.46 149.34,761.46 156.89,758.24 C161.62,756.22 209.18,756.00 218.50,757.95 C227.31,759.80 238.32,765.23 246.26,771.64 L 253.25 777.29 L 258.50 775.63 C266.17,773.21 277.40,772.03 286.25,772.70 C292.17,773.16 294.00,773.00 294.00,772.02 C294.00,771.32 295.19,768.11 296.64,764.88 C299.03,759.54 299.98,758.52 302.25,758.88 C302.66,758.95 303.00,758.44 303.00,757.75 C303.01,754.98 311.25,753.02 325.50,752.41 C333.60,752.06 341.19,751.20 343.50,750.37 C362.44,743.58 381.64,750.78 389.77,767.73 C392.07,772.52 393.05,773.57 395.94,774.29 C397.84,774.77 400.24,775.75 401.28,776.48 C402.88,777.61 403.81,777.53 407.34,776.00 C412.57,773.73 428.81,772.62 439.00,773.84 C444.56,774.51 448.69,774.36 455.00,773.27 C465.56,771.44 477.38,772.06 485.67,774.87 C491.51,776.86 492.04,776.88 495.67,775.33 C498.57,774.10 503.73,773.61 517.00,773.32 C526.62,773.11 539.00,772.82 544.50,772.69 C556.15,772.41 571.16,774.06 573.32,775.85 C575.94,778.03 581.79,774.34 584.98,768.50 C586.65,765.45 589.48,762.29 592.23,760.41 L 596.74 757.33 L 618.21 756.68 C645.35,755.86 677.60,756.82 681.00,758.54 C684.99,760.56 687.56,763.20 689.78,767.56 L 691.84 771.61 L 703.17 772.78 C713.43,773.84 715.35,774.38 723.50,778.46 C731.18,782.31 732.66,782.76 733.60,781.50 C735.58,778.85 749.21,773.72 756.00,773.08 C756.83,773.00 761.48,772.83 766.34,772.72 L 775.19 772.50 L 776.44 768.86 C778.83,761.91 781.48,758.55 786.92,755.62 C792.13,752.80 792.60,752.74 807.97,752.69 C823.27,752.63 823.82,752.70 828.28,755.32 C833.87,758.59 836.50,761.81 838.75,768.15 C840.28,772.47 840.85,773.06 843.98,773.56 C855.59,775.43 868.84,784.77 874.41,795.02 C879.50,804.37 880.21,808.69 880.73,833.68 C881.13,853.23 880.96,857.61 879.60,861.71 C878.01,866.49 872.28,874.61 871.23,873.57 C870.94,873.27 870.20,873.69 869.60,874.49 C867.33,877.49 856.29,879.30 844.66,878.56 C838.70,878.19 832.69,877.45 831.31,876.93 C829.63,876.29 827.43,876.37 824.65,877.16 C818.95,878.79 794.50,878.80 789.84,877.17 C786.73,876.10 785.20,876.16 779.84,877.60 C766.94,881.07 750.39,879.25 738.01,873.01 C732.27,870.11 731.83,870.03 729.00,871.50 C727.36,872.35 725.73,872.99 725.37,872.93 C725.02,872.88 724.45,873.26 724.11,873.80 C723.17,875.29 714.75,877.87 706.79,879.10 C695.98,880.78 681.93,878.09 670.15,872.08 L 665.90 869.91 L 662.07 872.95 C656.26,877.54 647.72,879.36 634.74,878.75 C625.49,878.31 623.17,877.84 618.24,875.37 C614.89,873.69 611.67,871.20 610.50,869.37 C610.07,868.71 609.69,868.10 609.34,867.56 C607.18,864.16 606.44,863.00 606.06,863.11 C605.80,863.18 605.70,863.83 605.43,864.75 C605.06,865.99 604.44,867.00 604.05,867.00 C603.66,867.00 603.33,867.61 603.33,868.36 C603.33,871.25 595.88,882.84 591.20,887.22 C585.64,892.42 580.94,895.06 573.07,897.39 ZM 553.87 884.91 C568.83,887.19 582.24,880.21 589.23,866.50 C590.92,863.20 594.63,854.88 597.47,848.00 C598.47,845.57 599.43,843.25 600.34,841.04 C610.83,815.66 615.44,804.51 617.45,804.96 C619.03,805.31 619.02,812.78 619.01,826.10 C619.01,827.58 619.00,829.13 619.00,830.75 C619.01,854.49 619.16,856.75 620.95,859.69 C623.40,863.70 627.73,864.99 638.80,864.99 C647.72,865.00 651.72,863.67 654.44,859.78 C655.76,857.90 656.00,853.47 656.00,831.28 L 656.00 805.00 L 659.50 805.00 C661.42,805.00 663.00,805.24 663.00,805.54 C663.00,805.84 662.02,807.97 660.81,810.29 C657.50,816.68 657.06,830.67 659.91,839.23 C667.18,861.07 695.87,871.74 718.66,861.07 C722.05,859.48 726.42,856.50 728.37,854.43 L 731.91 850.68 L 736.08 854.45 C741.59,859.43 750.91,863.66 759.23,864.97 C767.41,866.26 777.68,864.47 784.74,860.52 L 789.29 857.98 L 790.78 860.09 C791.59,861.26 793.76,862.84 795.60,863.61 C799.53,865.25 812.84,865.45 818.26,863.94 C824.74,862.15 825.43,860.00 826.00,840.06 C826.45,824.38 826.69,822.49 828.25,822.19 C829.86,821.88 830.00,823.20 830.00,838.88 C830.00,849.16 830.44,856.86 831.10,858.33 C833.16,862.84 838.77,865.00 848.43,865.00 C858.94,865.00 864.15,862.88 865.89,857.89 C867.30,853.84 867.34,822.71 865.95,814.14 C863.20,797.18 852.86,788.25 834.80,787.22 L 826.00 786.72 L 826.00 779.76 C826.00,773.18 825.82,772.62 822.60,769.40 L 819.20 766.00 L 808.55 766.00 C791.69,766.00 789.00,768.47 789.00,783.95 C789.00,788.93 788.83,793.00 788.62,793.00 C788.41,793.00 785.67,791.82 782.53,790.38 C778.41,788.50 774.52,787.62 768.62,787.26 C754.76,786.39 744.85,789.63 735.66,798.03 L 730.48 802.76 L 726.55 798.24 C720.82,791.65 711.94,787.74 701.45,787.19 C694.12,786.81 686.51,787.72 681.75,789.54 C680.27,790.11 680.00,789.61 679.98,786.36 C679.94,780.64 678.38,774.93 676.32,772.95 C674.74,771.43 671.68,771.13 653.00,770.68 C641.18,770.40 624.78,770.43 616.56,770.74 C602.36,771.29 601.50,771.44 599.35,773.75 C597.67,775.57 597.02,777.64 596.80,781.85 L 596.50 787.50 L 591.84 787.80 C585.66,788.20 583.02,790.79 579.55,799.88 C578.01,803.89 576.44,806.79 576.04,806.33 C575.64,805.87 574.01,802.20 572.41,798.17 C570.41,793.12 568.72,790.42 567.00,789.52 C564.39,788.16 548.06,787.59 517.93,787.81 C503.93,787.92 502.10,788.13 499.79,789.95 C498.38,791.06 496.94,793.10 496.59,794.49 L 495.96 797.01 L 490.89 793.52 C483.83,788.66 479.18,787.52 466.50,787.54 C457.12,787.56 454.72,787.91 450.21,789.92 L 444.91 792.28 L 442.92 790.14 C441.08,788.16 439.92,788.00 427.92,788.00 C412.49,788.00 412.04,788.26 407.53,799.75 C405.98,803.70 404.36,806.72 403.93,806.46 C403.51,806.19 402.16,802.97 400.93,799.30 C397.61,789.33 395.87,788.00 386.05,788.00 L 378.00 788.00 L 377.98 782.25 C377.96,777.89 377.29,775.31 375.23,771.58 C371.53,764.91 366.83,762.50 357.50,762.50 C351.36,762.50 349.95,762.87 346.00,765.54 C341.93,768.28 341.26,768.45 339.00,767.26 C337.26,766.34 333.11,766.03 325.27,766.22 C314.51,766.49 313.93,766.61 311.27,769.27 C308.57,771.97 308.49,772.36 308.17,785.13 L 307.84 798.22 L 305.17 795.67 C303.70,794.26 299.80,791.85 296.50,790.31 C291.07,787.76 289.46,787.50 279.50,787.50 C267.03,787.50 261.76,788.97 253.65,794.71 C250.99,796.59 248.69,797.99 248.55,797.82 C248.41,797.64 246.72,795.03 244.80,792.00 C238.02,781.30 229.03,775.17 216.12,772.44 C206.52,770.40 165.27,770.42 162.36,772.46 C158.07,775.47 157.87,777.63 158.20,818.76 L 158.50 857.84 L 160.93 860.43 C164.85,864.60 169.56,865.28 190.50,864.72 C216.58,864.01 226.81,861.02 237.41,851.00 L 242.81 845.89 L 247.66 851.08 C250.32,853.93 254.07,857.26 256.00,858.48 C270.09,867.37 289.25,867.54 303.88,858.91 L 307.40 856.83 L 309.37 859.54 C310.46,861.03 312.83,862.87 314.64,863.62 C319.18,865.52 333.90,865.42 338.80,863.46 C342.24,862.09 342.93,862.09 345.57,863.46 C347.54,864.49 351.35,864.99 357.18,864.99 C373.33,865.01 376.00,862.31 376.00,846.01 C376.00,840.44 376.37,836.11 376.83,836.39 C377.28,836.67 379.61,841.89 381.99,847.98 C388.24,863.92 389.71,865.00 405.16,865.00 C416.81,865.00 419.10,863.72 423.36,854.83 C425.30,850.80 427.34,846.26 427.91,844.75 C429.12,841.55 430.61,841.19 431.47,843.90 C433.64,850.74 444.10,859.38 454.75,863.13 C466.20,867.17 482.17,865.39 492.65,858.91 C494.55,857.73 496.22,856.94 496.36,857.14 C496.49,857.34 497.37,858.72 498.30,860.21 C500.64,863.95 506.41,865.31 517.88,864.81 C526.96,864.41 527.35,864.29 530.13,861.18 L 533.00 857.97 L 533.00 843.61 C533.00,835.71 533.28,827.84 533.62,826.12 C534.22,823.15 534.48,823.00 539.00,823.00 L 543.75 823.00 L 546.02 828.25 C547.26,831.14 549.80,837.04 551.65,841.36 L 555.02 849.23 L 551.54 848.57 C545.73,847.48 542.56,849.92 538.00,859.00 C533.06,868.82 532.75,873.43 536.75,877.26 C540.21,880.58 547.85,883.99 553.87,884.91 ZM 464.00 708.27 C458.51,710.50 458.40,710.50 388.50,710.70 L 386.59 710.70 C323.75,710.88 314.65,710.91 307.09,707.51 C305.73,706.90 304.43,706.18 302.87,705.33 C296.90,702.09 287.06,692.00 283.99,685.98 C283.53,685.09 283.12,684.45 282.74,683.78 C278.86,676.92 278.87,667.86 278.97,371.47 C278.98,352.01 278.99,331.32 278.99,309.31 C279.00,291.64 279.07,291.03 281.36,288.37 L 283.71 285.64 L 385.96 285.89 C442.20,286.03 488.80,286.37 489.52,286.64 C492.17,287.66 493.07,292.58 492.78,304.52 L 492.50 316.46 L 487.50 317.57 C484.75,318.19 481.49,319.01 480.25,319.41 C478.02,320.13 478.00,320.04 478.00,310.57 L 478.00 301.00 L 294.03 301.00 L 294.02 477.25 C294.01,596.06 294.34,654.80 295.05,657.50 C299.40,674.24 308.66,682.32 325.64,684.18 C330.32,684.70 360.55,684.97 392.82,684.80 L 451.50 684.48 L 457.33 682.14 C464.35,679.32 468.96,675.46 472.48,669.44 C478.02,659.99 477.97,660.67 478.06,592.00 C478.11,552.22 478.48,529.25 479.06,530.50 C479.57,531.60 481.10,541.05 482.46,551.50 C483.83,561.95 486.78,583.78 489.02,600.00 C492.99,628.69 493.09,630.13 492.76,652.50 C492.45,673.48 492.22,675.99 490.19,681.11 C485.36,693.27 475.33,703.67 464.00,708.27 ZM 539.47 693.06 C540.00,693.28 540.40,693.46 540.81,693.56 C542.31,693.94 544.04,693.37 553.09,690.40 L 554.31 690.00 L 564.98 686.50 L 565.17 623.00 C565.28,588.08 565.23,541.05 565.06,518.50 L 564.76 477.50 L 558.07 470.50 C550.27,462.35 547.07,457.83 540.38,445.50 L 535.50 436.50 L 535.25 562.89 C535.24,567.85 535.23,572.62 535.22,577.20 C535.00,683.18 534.98,690.81 538.17,692.53 C538.55,692.74 538.98,692.86 539.47,693.06 ZM 738.77 693.44 C739.74,694.40 741.99,694.06 745.05,692.47 L 748.00 690.95 L 748.00 564.47 C748.00,494.91 747.63,438.00 747.17,438.00 C746.71,438.00 745.25,440.35 743.92,443.22 C740.18,451.29 732.89,461.97 725.09,470.83 L 717.99 478.89 L 718.25 582.58 L 718.50 686.27 L 728.36 689.58 C733.78,691.39 738.46,693.13 738.77,693.44 ZM 633.00 493.14 C636.03,493.49 640.48,493.60 642.89,493.39 C645.30,493.17 648.34,493.00 649.64,493.00 L 652.00 493.00 L 652.00 263.00 L 626.99 263.00 L 627.50 492.50 ZM 668.00 677.61 C673.78,678.21 680.41,678.78 682.75,678.86 L 687.00 679.00 L 687.00 499.09 L 680.66 501.48 C675.06,503.58 668.78,505.37 659.74,507.42 L 656.99 508.04 L 657.24 592.27 L 657.50 676.50 ZM 596.53 679.20 C596.82,679.49 598.96,679.39 601.28,678.97 C603.60,678.55 610.12,677.88 615.76,677.49 L 626.01 676.78 L 625.76 592.19 L 625.50 507.59 L 619.41 506.36 C614.24,505.31 604.22,502.14 597.75,499.50 C596.09,498.82 596.00,503.46 596.00,588.73 C596.00,638.19 596.24,678.91 596.53,679.20 ZM 212.20 852.88 C209.29,853.49 198.37,854.00 187.95,854.00 L 169.00 854.00 L 169.00 780.84 L 214.50 781.50 L 221.44 784.79 C233.00,790.26 239.08,798.47 240.86,811.00 C243.76,831.49 232.00,848.68 212.20,852.88 ZM 690.00 478.22 C690.00,480.17 690.08,480.18 692.75,478.46 C698.38,474.84 707.66,467.05 712.75,461.67 C717.23,456.93 718.00,455.55 718.00,452.23 C718.00,450.09 719.12,439.33 720.49,428.31 C721.85,417.30 725.68,383.81 728.99,353.90 C732.30,323.98 735.19,298.71 735.41,297.75 C735.68,296.58 735.10,295.84 733.66,295.52 C728.75,294.46 711.78,292.89 711.22,293.45 C710.46,294.21 710.45,294.28 708.53,312.46 C707.66,320.73 705.83,337.17 704.45,349.00 C703.08,360.83 701.29,376.35 700.48,383.50 C699.67,390.65 697.45,409.77 695.54,426.00 C691.91,456.77 690.00,474.80 690.00,478.22 ZM 581.49 472.04 C584.25,474.10 586.81,475.50 587.18,475.15 C587.55,474.79 587.47,471.12 587.00,467.00 C586.53,462.88 584.52,444.88 582.54,427.00 C580.55,409.12 577.40,381.23 575.52,365.00 C573.65,348.77 571.08,325.90 569.81,314.16 L 567.50 292.83 L 564.00 293.37 C562.08,293.66 557.06,294.21 552.85,294.58 C548.64,294.95 544.66,295.59 544.01,296.00 C542.77,296.76 547.14,340.01 556.04,414.95 C559.79,446.60 560.16,448.62 562.75,452.40 C566.91,458.43 575.87,467.83 581.49,472.04 ZM 664.36 421.75 C663.86,475.56 663.99,490.00 664.96,490.00 C665.64,490.00 668.56,489.31 671.46,488.47 L 676.72 486.94 L 677.91 474.72 C678.56,468.00 679.97,455.52 681.03,447.00 C687.49,395.45 689.92,368.86 690.61,342.25 L 691.31 315.00 L 666.26 315.00 L 665.63 334.25 C665.29,344.84 664.72,384.21 664.36,421.75 ZM 608.00 486.77 C611.03,487.88 613.84,488.59 614.25,488.34 C614.66,488.09 615.00,451.23 615.00,406.44 L 615.00 325.00 L 589.79 325.00 L 590.24 360.25 C590.65,391.86 591.02,398.23 593.87,422.00 C595.61,436.58 597.97,456.38 599.09,466.00 C600.22,475.62 601.45,483.78 601.82,484.13 C602.20,484.47 604.97,485.66 608.00,486.77 ZM 292.57 852.89 C285.93,855.37 275.84,855.61 269.00,853.43 C258.51,850.09 250.74,841.18 249.00,830.49 C245.99,812.00 259.20,797.00 278.48,797.00 C295.57,797.00 306.73,807.07 307.78,823.43 L 308.23 830.50 L 289.57 830.15 C265.04,829.70 262.56,830.42 268.75,836.19 C272.95,840.11 275.35,841.00 281.70,841.00 C286.35,841.00 288.32,840.47 291.39,838.38 L 295.24 835.77 L 299.87 840.43 L 304.50 845.10 L 301.36 847.94 C299.63,849.50 295.68,851.72 292.57,852.89 ZM 483.79 852.14 C480.57,853.81 477.38,854.44 471.00,854.67 C455.35,855.24 445.46,849.68 439.57,837.00 C433.28,823.44 439.11,806.89 452.62,799.99 C456.86,797.83 458.81,797.50 467.50,797.51 C475.31,797.51 478.27,797.92 481.00,799.37 C485.55,801.78 490.76,806.72 492.74,810.50 C494.82,814.48 496.97,822.70 496.99,826.75 L 497.00 830.00 L 480.25 830.09 C471.04,830.14 461.36,830.10 458.75,830.01 C453.49,829.83 453.40,829.94 455.40,833.81 C458.87,840.51 470.77,843.20 478.81,839.09 C481.07,837.94 483.43,837.00 484.04,837.00 C485.41,837.00 492.00,843.64 492.00,845.02 C492.00,846.62 488.38,849.77 483.79,852.14 ZM 743.50 418.00 C743.85,418.57 749.01,419.00 755.52,419.00 C765.37,419.00 767.06,418.76 767.85,417.25 C768.36,416.29 771.79,402.45 775.47,386.50 C779.15,370.55 783.47,352.11 785.08,345.53 C786.69,338.94 788.00,333.27 788.00,332.94 C788.00,331.81 764.93,326.66 764.08,327.60 C763.63,328.09 761.14,337.73 758.55,349.00 C755.96,360.27 753.01,373.10 751.99,377.50 C744.49,409.79 742.96,417.12 743.50,418.00 ZM 571.99 871.63 C566.98,874.94 556.69,875.82 550.50,873.46 C544.17,871.04 543.84,870.27 546.59,864.13 C548.71,859.40 549.26,858.85 551.25,859.46 C552.49,859.84 555.57,860.39 558.09,860.69 C562.22,861.17 562.90,860.95 564.84,858.48 C566.03,856.97 567.00,854.95 567.00,853.99 C567.00,852.23 562.41,840.43 557.47,829.50 C555.98,826.20 552.37,817.76 549.46,810.75 L 544.16 798.00 L 552.83 798.01 L 561.50 798.03 L 563.87 804.26 C567.76,814.49 575.25,832.44 575.96,833.27 C576.33,833.69 577.86,830.99 579.37,827.27 C580.88,823.54 584.20,815.44 586.75,809.25 L 591.39 798.00 L 599.20 798.00 C603.49,798.00 607.00,798.20 607.00,798.44 C607.00,800.07 580.43,862.25 578.45,865.24 C577.09,867.30 574.19,870.17 571.99,871.63 ZM 517.15 417.25 C517.95,418.77 519.66,419.00 530.16,419.00 L 542.26 419.00 L 541.58 414.77 C541.21,412.44 539.16,403.10 537.04,394.02 C534.91,384.93 531.29,368.95 528.99,358.50 C526.69,348.05 524.47,339.14 524.05,338.70 C523.64,338.26 518.17,339.16 511.90,340.70 C500.93,343.39 500.51,343.59 500.82,346.00 C501.17,348.69 506.43,372.89 510.38,390.00 C511.71,395.77 513.57,403.88 514.52,408.00 C515.47,412.12 516.65,416.29 517.15,417.25 ZM 417.05 843.75 L 412.78 854.00 L 395.37 854.00 L 391.48 844.25 C389.34,838.89 384.31,826.71 380.30,817.18 C376.28,807.65 373.00,799.44 373.00,798.93 C373.00,798.42 376.76,798.00 381.37,798.00 L 389.73 798.00 L 394.94 811.03 C397.80,818.20 401.15,826.35 402.38,829.14 L 404.62 834.22 L 408.25 825.36 C410.24,820.49 413.55,812.34 415.61,807.25 L 419.34 798.00 L 427.67 798.00 C432.25,798.00 436.00,798.21 436.00,798.47 C436.00,798.73 432.70,806.72 428.66,816.22 C424.62,825.73 419.40,838.11 417.05,843.75 ZM 186.00 795.00 L 186.00 839.00 L 196.75 838.99 C210.50,838.98 216.35,836.67 220.47,829.64 C225.96,820.28 224.78,808.52 217.65,801.38 C212.49,796.22 208.33,795.01 195.75,795.01 ZM 335.00 776.00 L 335.00 854.00 L 318.00 854.00 L 318.00 776.00 ZM 523.02 838.75 L 523.00 854.00 L 506.00 854.00 L 506.00 798.00 L 522.00 798.00 L 522.00 804.10 L 525.25 801.69 C529.25,798.72 534.20,797.00 538.74,797.00 L 542.18 797.00 L 541.82 804.75 L 541.47 812.49 L 537.86 812.18 C531.98,811.67 527.23,814.27 524.99,819.21 C523.34,822.85 523.04,825.81 523.02,838.75 ZM 366.00 798.00 L 366.00 854.00 L 349.00 854.00 L 349.00 798.00 ZM 208.39 828.04 C207.00,828.57 203.65,829.00 200.93,829.00 L 196.00 829.00 L 196.00 805.00 L 201.05 805.00 C209.98,805.00 214.00,808.76 214.00,817.10 C214.00,822.18 211.62,826.81 208.39,828.04 ZM 365.08 787.08 C359.66,792.49 349.04,790.21 347.73,783.36 C346.97,779.40 348.83,775.14 352.06,773.47 C362.62,768.01 373.15,779.01 365.08,787.08 ZM 454.00 818.90 C454.00,820.92 454.46,821.00 466.83,821.00 C473.89,821.00 479.93,820.74 480.25,820.41 C481.42,819.25 478.74,813.95 476.00,812.00 C473.92,810.52 471.59,810.00 467.00,810.00 C461.28,810.00 460.53,810.27 457.40,813.40 C455.53,815.27 454.00,817.74 454.00,818.90 ZM 265.50 820.00 C265.92,820.68 270.70,820.96 278.81,820.78 C293.24,820.46 294.38,819.70 289.19,813.89 C286.56,810.94 285.62,810.58 279.88,810.26 C275.94,810.05 272.56,810.41 271.05,811.21 C268.19,812.73 264.56,818.47 265.50,820.00 ZM 484.22 402.45 C483.39,403.28 478.16,403.11 477.81,402.25 C477.64,401.84 477.73,395.42 478.00,388.00 C478.32,379.40 478.78,375.41 479.28,377.00 C480.93,382.31 484.74,401.93 484.22,402.45 ZM 768.10 828.93 C764.53,831.47 764.47,831.47 762.00,829.00 C759.73,826.73 759.56,825.68 761.04,822.93 C762.37,820.44 767.13,820.38 769.35,822.83 C771.67,825.39 771.43,826.56 768.10,828.93 Z" fill="rgb(53,53,49)"/>
<path d="M 805.44 624.00 C806.43,616.43 807.38,609.24 808.27,602.52 C807.37,609.33 806.42,616.53 805.45,624.00 C804.56,630.88 802.10,648.88 800.00,664.00 C797.90,679.12 796.19,695.26 796.22,699.86 C796.26,708.27 795.30,710.64 792.29,709.53 C791.62,709.29 790.09,710.53 788.88,712.30 C787.14,714.84 784.99,717.37 782.54,719.79 C786.26,715.92 789.21,711.63 791.45,706.88 C794.67,700.04 795.25,697.18 799.37,668.00 C801.81,650.67 804.55,630.88 805.44,624.00 ZM 460.80 772.52 C464.94,772.06 469.87,771.63 474.04,771.41 C484.80,770.81 486.80,770.94 488.17,772.31 C489.04,773.19 490.04,773.63 490.38,773.29 C490.72,772.95 491.00,773.43 491.00,774.35 C491.00,776.04 492.32,776.02 498.50,774.24 C499.60,773.92 508.15,773.50 517.50,773.30 C520.55,773.23 523.89,773.16 527.21,773.09 C523.74,773.17 520.22,773.25 517.00,773.32 C503.73,773.61 498.57,774.10 495.67,775.33 C492.04,776.88 491.51,776.86 485.67,774.87 C478.87,772.56 469.71,771.73 460.80,772.52 ZM 499.84 692.15 C500.79,690.28 501.33,688.75 501.26,687.87 C501.19,686.84 501.49,686.00 501.93,686.00 C502.38,686.00 503.05,688.36 503.44,691.24 C504.05,695.85 505.83,700.23 508.68,704.24 C506.03,700.60 504.28,696.71 503.58,692.75 C503.21,690.69 502.59,689.01 502.20,689.03 C501.94,689.04 501.01,690.30 499.84,692.15 ZM 496.86 697.15 C494.68,700.63 492.00,703.94 488.95,706.99 C491.73,704.17 494.60,700.54 496.86,697.15 ZM 439.00 773.84 C428.81,772.62 412.57,773.73 407.34,776.00 C412.60,773.72 428.84,772.61 439.11,773.84 C440.83,774.04 442.43,774.17 443.96,774.23 C442.38,774.18 440.76,774.05 439.00,773.84 Z" fill="rgb(163,163,160)"/>
<path d="M 633.00 493.14 L 627.50 492.50 L 626.99 263.00 L 652.00 263.00 L 652.00 493.00 L 649.64 493.00 C648.34,493.00 645.30,493.17 642.89,493.39 C640.48,493.60 636.03,493.49 633.00,493.14 ZM 690.00 478.22 C690.00,474.80 691.91,456.77 695.54,426.00 C697.45,409.77 699.67,390.65 700.48,383.50 C701.29,376.35 703.08,360.83 704.45,349.00 C705.83,337.17 707.66,320.73 708.53,312.46 C710.45,294.28 710.46,294.21 711.22,293.45 C711.78,292.89 728.75,294.46 733.66,295.52 C735.10,295.84 735.68,296.58 735.41,297.75 C735.19,298.71 732.30,323.98 728.99,353.90 C725.68,383.81 721.85,417.30 720.49,428.31 C719.12,439.33 718.00,450.09 718.00,452.23 C718.00,455.55 717.23,456.93 712.75,461.67 C707.66,467.05 698.38,474.84 692.75,478.46 C690.08,480.18 690.00,480.17 690.00,478.22 ZM 630.22 488.25 C630.82,489.71 632.25,490.00 638.77,490.00 C643.53,490.00 647.07,489.53 647.80,488.80 C648.72,487.88 649.00,461.87 649.00,377.80 L 649.00 268.00 L 646.90 265.90 C645.05,264.05 644.10,263.88 639.15,264.50 C635.84,264.91 633.72,264.90 632.36,265.92 C629.95,267.71 629.94,272.72 629.89,288.99 C629.88,290.93 629.88,293.02 629.87,295.29 C629.43,389.39 629.61,486.75 630.22,488.25 ZM 581.49 472.04 C575.87,467.83 566.91,458.43 562.75,452.40 C560.16,448.62 559.79,446.60 556.04,414.95 C547.14,340.01 542.77,296.76 544.01,296.00 C544.66,295.59 548.64,294.95 552.85,294.58 C557.06,294.21 562.08,293.66 564.00,293.37 L 567.50 292.83 L 569.81 314.16 C571.08,325.90 573.65,348.77 575.52,365.00 C577.40,381.23 580.55,409.12 582.54,427.00 C584.52,444.88 586.53,462.88 587.00,467.00 C587.47,471.12 587.55,474.79 587.18,475.15 C586.81,475.50 584.25,474.10 581.49,472.04 ZM 664.36 421.75 C664.72,384.21 665.29,344.84 665.63,334.25 L 666.26 315.00 L 691.31 315.00 L 690.61 342.25 C689.92,368.86 687.49,395.45 681.03,447.00 C679.97,455.52 678.56,468.00 677.91,474.72 L 676.72 486.94 L 671.46 488.47 C668.56,489.31 665.64,490.00 664.96,490.00 C663.99,490.00 663.86,475.56 664.36,421.75 ZM 693.25 473.34 C693.94,473.62 694.78,473.88 695.13,473.92 C696.54,474.10 713.19,458.64 714.06,456.34 C716.28,450.49 723.02,393.71 728.11,338.00 C728.68,331.67 729.59,324.48 730.12,322.00 C731.92,313.52 732.73,302.57 731.71,300.31 C730.48,297.56 729.78,297.30 721.31,296.46 C716.00,295.94 714.16,296.10 713.27,297.18 C712.63,297.94 711.65,303.50 711.08,309.53 C710.51,315.57 709.14,326.79 708.02,334.49 C706.90,342.18 705.34,354.56 704.55,361.99 C700.87,396.42 697.88,422.63 697.48,424.00 C697.24,424.83 696.34,434.23 695.48,444.90 C694.62,455.56 693.48,465.10 692.96,466.08 C691.60,468.61 691.77,472.74 693.25,473.34 ZM 608.00 486.77 C604.97,485.66 602.20,484.47 601.82,484.13 C601.45,483.78 600.22,475.62 599.09,466.00 C597.97,456.38 595.61,436.58 593.87,422.00 C591.02,398.23 590.65,391.86 590.24,360.25 L 589.79 325.00 L 615.00 325.00 L 615.00 406.44 C615.00,451.23 614.66,488.09 614.25,488.34 C613.84,488.59 611.03,487.88 608.00,486.77 ZM 574.42 463.24 C577.76,466.40 581.35,468.98 582.38,468.99 C584.07,469.00 584.19,468.47 583.56,463.75 C583.17,460.86 582.66,454.45 582.42,449.50 C582.18,444.55 581.30,435.17 580.47,428.66 C579.64,422.14 578.05,407.79 576.95,396.77 C575.85,385.75 574.64,376.23 574.26,375.61 C573.87,375.00 573.23,370.00 572.83,364.50 C572.13,354.93 571.55,349.61 569.03,329.50 C568.41,324.55 567.45,316.67 566.88,312.00 C565.05,296.74 565.15,297.08 562.30,296.36 C559.19,295.58 548.40,297.43 546.40,299.08 C544.61,300.57 544.62,303.89 546.45,312.00 C547.93,318.53 550.11,337.74 550.53,348.00 C550.86,356.05 552.93,375.71 553.95,380.43 C554.43,382.67 555.11,388.33 555.47,393.00 C555.83,397.67 556.54,403.98 557.04,407.00 C557.53,410.02 558.16,414.75 558.42,417.50 C560.78,442.45 561.15,444.36 564.78,451.00 C566.81,454.71 570.95,459.96 574.42,463.24 ZM 667.44 485.58 C671.88,488.83 675.15,483.34 676.15,471.00 C677.65,452.45 678.85,440.42 679.86,434.00 C680.42,430.42 681.36,421.95 681.94,415.17 C682.53,408.39 683.46,400.96 684.01,398.67 C686.63,387.76 689.85,322.45 687.94,318.89 C687.09,317.30 685.76,317.00 679.54,317.00 C670.18,317.00 669.35,317.77 668.58,327.23 C668.26,331.23 667.77,337.20 667.51,340.50 C667.24,343.80 666.72,377.51 666.35,415.40 C665.73,480.34 665.79,484.37 667.44,485.58 ZM 605.23 482.61 C608.68,486.54 609.11,486.64 611.39,484.12 C612.96,482.39 613.07,476.53 612.89,406.11 C612.72,344.34 612.43,329.77 611.36,328.88 C610.63,328.28 606.70,327.73 602.64,327.67 C601.83,327.66 601.08,327.63 600.38,327.61 C597.70,327.52 595.84,327.45 594.57,328.29 C591.67,330.18 591.79,336.70 592.18,358.07 C592.22,360.51 592.27,363.14 592.32,365.99 C592.76,391.98 593.31,403.04 594.37,407.24 C595.16,410.39 595.85,416.39 595.89,420.56 C595.93,424.73 596.23,428.56 596.55,429.08 C597.15,430.05 598.36,440.27 599.98,458.00 C601.79,477.79 602.05,478.98 605.23,482.61 ZM 743.50 418.00 C742.96,417.12 744.49,409.79 751.99,377.50 C753.01,373.10 755.96,360.27 758.55,349.00 C761.14,337.73 763.63,328.09 764.08,327.60 C764.93,326.66 788.00,331.81 788.00,332.94 C788.00,333.27 786.69,338.94 785.08,345.53 C783.47,352.11 779.15,370.55 775.47,386.50 C771.79,402.45 768.36,416.29 767.85,417.25 C767.06,418.76 765.37,419.00 755.52,419.00 C749.01,419.00 743.85,418.57 743.50,418.00 ZM 517.15 417.25 C516.65,416.29 515.47,412.12 514.52,408.00 C513.57,403.88 511.71,395.77 510.38,390.00 C506.43,372.89 501.17,348.69 500.82,346.00 C500.51,343.59 500.93,343.39 511.90,340.70 C518.17,339.16 523.64,338.26 524.05,338.70 C524.47,339.14 526.69,348.05 528.99,358.50 C531.29,368.95 534.91,384.93 537.04,394.02 C539.16,403.10 541.21,412.44 541.58,414.77 L 542.26 419.00 L 530.16 419.00 C519.66,419.00 517.95,418.77 517.15,417.25 ZM 748.61 415.75 C751.09,417.62 763.52,416.91 765.66,414.77 C767.44,412.99 768.67,408.47 770.57,396.77 C771.35,391.96 772.94,384.76 774.11,380.77 C775.28,376.77 776.68,371.25 777.22,368.50 C777.77,365.75 779.58,357.58 781.25,350.35 C782.92,343.12 784.04,336.56 783.74,335.77 C782.85,333.44 770.20,329.59 767.49,330.82 C765.06,331.93 761.79,340.99 759.93,351.80 C759.39,354.93 758.51,359.42 757.97,361.76 C757.44,364.11 757.00,367.48 756.99,369.26 C756.98,371.04 755.88,374.85 754.54,377.73 C751.83,383.57 749.15,395.35 747.35,409.41 C746.82,413.51 747.03,414.55 748.61,415.75 ZM 523.69 415.98 C528.48,417.42 535.63,417.15 537.02,415.48 C538.78,413.35 537.17,403.48 530.48,375.50 C529.69,372.20 527.66,363.65 525.96,356.50 C524.27,349.35 522.24,343.00 521.45,342.40 C519.78,341.11 511.55,342.15 507.27,344.19 C504.94,345.31 504.45,346.22 504.21,350.01 C504.05,352.55 505.06,358.84 506.53,364.50 C510.19,378.51 513.00,391.80 513.00,395.09 C513.00,396.63 513.40,398.13 513.89,398.43 C514.38,398.73 515.55,402.12 516.49,405.95 C518.30,413.36 519.23,414.64 523.69,415.98 ZM 346.93 285.79 L 292.33 285.66 C297.27,285.27 304.78,285.07 309.48,285.22 L 318.47 285.50 L 330.23 274.11 C336.71,267.85 342.00,262.11 342.00,261.35 C342.00,259.77 347.94,254.07 349.63,254.03 C351.23,253.99 358.00,246.30 358.00,244.54 C358.00,242.84 351.64,236.71 345.72,232.72 C340.60,229.26 340.03,228.70 342.53,229.61 C344.93,230.47 356.96,240.52 358.88,243.25 C360.17,245.08 358.88,246.61 340.63,264.87 C329.83,275.68 321.00,284.85 321.00,285.26 C321.00,285.47 330.97,285.66 346.93,285.79 ZM 821.30 799.99 C819.42,801.09 817.51,802.00 817.05,802.00 C815.42,802.00 815.00,798.69 815.20,787.17 L 815.40 775.50 L 815.95 786.50 L 816.50 797.50 L 820.00 797.28 C821.92,797.16 827.10,796.85 831.50,796.60 L 839.50 796.14 L 832.10 797.06 C828.01,797.57 823.19,798.87 821.30,799.99 ZM 775.44 837.47 C772.27,839.86 771.68,839.21 774.17,836.06 C776.83,832.69 777.55,832.53 781.00,834.50 L 783.50 835.93 L 780.44 835.96 C778.76,835.98 776.51,836.66 775.44,837.47 ZM 279.04 580.34 C279.22,649.87 279.74,670.66 281.08,678.65 C279.48,670.60 279.12,651.07 279.04,580.34 ZM 482.36 286.45 C471.27,286.29 448.25,286.12 419.76,286.00 C456.14,286.02 473.76,286.11 482.36,286.45 ZM 492.79 304.98 L 492.50 316.46 L 492.78 304.52 C492.97,296.55 492.64,291.71 491.60,289.07 C492.88,291.31 493.04,294.90 492.79,304.98 ZM 278.96 415.39 C278.93,387.73 278.91,365.91 278.98,348.71 C278.98,356.48 278.98,364.06 278.97,371.47 C278.97,386.87 278.96,401.50 278.96,415.39 ZM 288.56 285.65 L 283.98 285.64 C284.05,285.60 284.12,285.57 284.20,285.55 C285.15,285.21 286.26,285.36 287.58,285.53 C287.89,285.57 288.22,285.61 288.56,285.65 ZM 283.44 285.95 L 282.44 287.11 C282.75,286.60 283.08,286.22 283.44,285.95 Z" fill="rgb(230,188,106)"/>
<path d="M 630.22 488.25 C629.61,486.75 629.43,389.39 629.87,295.29 C629.88,293.02 629.88,290.93 629.89,288.99 C629.94,272.72 629.95,267.71 632.36,265.92 C633.72,264.90 635.84,264.91 639.15,264.50 C644.10,263.88 645.05,264.05 646.90,265.90 L 649.00 268.00 L 649.00 377.80 C649.00,461.87 648.72,487.88 647.80,488.80 C647.07,489.53 643.53,490.00 638.77,490.00 C632.25,490.00 630.82,489.71 630.22,488.25 ZM 693.25 473.34 C691.77,472.74 691.60,468.61 692.96,466.08 C693.48,465.10 694.62,455.56 695.48,444.90 C696.34,434.23 697.24,424.83 697.48,424.00 C697.88,422.63 700.87,396.42 704.55,361.99 C705.34,354.56 706.90,342.18 708.02,334.49 C709.14,326.79 710.51,315.57 711.08,309.53 C711.65,303.50 712.63,297.94 713.27,297.18 C714.16,296.10 716.00,295.94 721.31,296.46 C729.78,297.30 730.48,297.56 731.71,300.31 C732.73,302.57 731.92,313.52 730.12,322.00 C729.59,324.48 728.68,331.67 728.11,338.00 C723.02,393.71 716.28,450.49 714.06,456.34 C713.19,458.64 696.54,474.10 695.13,473.92 C694.78,473.88 693.94,473.62 693.25,473.34 ZM 574.42 463.24 C570.95,459.96 566.81,454.71 564.78,451.00 C561.15,444.36 560.78,442.45 558.42,417.50 C558.16,414.75 557.53,410.02 557.04,407.00 C556.54,403.98 555.83,397.67 555.47,393.00 C555.11,388.33 554.43,382.67 553.95,380.43 C552.93,375.71 550.86,356.05 550.53,348.00 C550.11,337.74 547.93,318.53 546.45,312.00 C544.62,303.89 544.61,300.57 546.40,299.08 C548.40,297.43 559.19,295.58 562.30,296.36 C565.15,297.08 565.05,296.74 566.88,312.00 C567.45,316.67 568.41,324.55 569.03,329.50 C571.55,349.61 572.13,354.93 572.83,364.50 C573.23,370.00 573.87,375.00 574.26,375.61 C574.64,376.23 575.85,385.75 576.95,396.77 C578.05,407.79 579.64,422.14 580.47,428.66 C581.30,435.17 582.18,444.55 582.42,449.50 C582.66,454.45 583.17,460.86 583.56,463.75 C584.19,468.47 584.07,469.00 582.38,468.99 C581.35,468.98 577.76,466.40 574.42,463.24 ZM 667.44 485.58 C665.79,484.37 665.73,480.34 666.35,415.40 C666.72,377.51 667.24,343.80 667.51,340.50 C667.77,337.20 668.26,331.23 668.58,327.23 C669.35,317.77 670.18,317.00 679.54,317.00 C685.76,317.00 687.09,317.30 687.94,318.89 C689.85,322.45 686.63,387.76 684.01,398.67 C683.46,400.96 682.53,408.39 681.94,415.17 C681.36,421.95 680.42,430.42 679.86,434.00 C678.85,440.42 677.65,452.45 676.15,471.00 C675.15,483.34 671.88,488.83 667.44,485.58 ZM 605.23 482.61 C602.05,478.98 601.79,477.79 599.98,458.00 C598.36,440.27 597.15,430.05 596.55,429.08 C596.23,428.56 595.93,424.73 595.89,420.56 C595.85,416.39 595.16,410.39 594.37,407.24 C593.31,403.04 592.76,391.98 592.32,365.99 C592.27,363.14 592.22,360.51 592.18,358.07 C591.79,336.70 591.67,330.18 594.57,328.29 C595.84,327.45 597.70,327.52 600.38,327.61 C601.08,327.63 601.83,327.66 602.64,327.67 C606.70,327.73 610.63,328.28 611.36,328.88 C612.43,329.77 612.72,344.34 612.89,406.11 C613.07,476.53 612.96,482.39 611.39,484.12 C609.11,486.64 608.68,486.54 605.23,482.61 ZM 278.96 415.39 C278.96,422.34 278.95,429.11 278.95,435.70 C278.83,372.72 278.56,328.00 278.24,328.00 C277.82,328.00 270.96,334.52 263.00,342.50 C255.04,350.48 247.94,357.00 247.22,357.00 C246.50,357.00 245.14,358.35 244.20,359.99 C243.27,361.64 242.20,362.99 241.83,362.99 C240.39,363.01 232.83,353.39 228.60,346.15 C226.14,341.94 222.89,334.90 221.38,330.50 C218.93,323.38 218.63,321.02 218.57,309.00 C218.49,292.64 219.54,287.83 226.27,274.00 C230.79,264.70 232.47,262.41 240.94,253.96 C248.32,246.59 252.32,243.48 258.50,240.31 C269.99,234.41 278.82,231.92 290.57,231.28 C311.41,230.14 326.02,234.99 344.79,249.28 L 350.08 253.30 L 353.04 250.46 C357.66,246.03 357.15,242.19 351.25,236.98 C350.70,236.50 350.11,236.00 349.51,235.51 C354.07,239.13 358.00,243.20 358.00,244.54 C358.00,246.30 351.23,253.99 349.63,254.03 C347.94,254.07 342.00,259.77 342.00,261.35 C342.00,262.11 336.71,267.85 330.23,274.11 L 318.47 285.50 L 309.48 285.22 C304.78,285.07 297.27,285.27 292.33,285.66 L 288.56 285.65 C288.22,285.61 287.89,285.57 287.58,285.53 C286.26,285.36 285.15,285.21 284.20,285.55 L 285.57 284.14 L 302.19 283.82 L 318.81 283.50 L 329.39 273.00 C335.21,267.23 339.98,261.81 339.99,260.96 C340.01,258.90 332.59,251.94 327.00,248.77 C324.52,247.36 318.54,244.98 313.71,243.48 C305.53,240.93 304.03,240.77 292.21,241.24 C278.18,241.80 270.81,243.84 260.73,249.95 C254.67,253.62 244.87,262.55 240.15,268.69 C231.88,279.45 226.10,299.40 227.49,312.41 C229.09,327.45 234.65,341.24 242.42,349.47 C244.94,352.14 247.20,354.14 247.43,353.91 C247.66,353.69 249.77,351.92 252.13,350.00 C258.30,344.94 269.00,334.29 269.00,333.20 C269.00,332.68 270.53,331.21 272.39,329.93 C277.77,326.25 278.92,322.66 279.00,307.49 C278.99,308.08 278.99,308.68 278.99,309.31 C278.99,322.94 278.99,336.07 278.98,348.71 L 278.98 348.72 C278.91,365.92 278.93,387.73 278.96,415.39 ZM 748.61 415.75 C747.03,414.55 746.82,413.51 747.35,409.41 C749.15,395.35 751.83,383.57 754.54,377.73 C755.88,374.85 756.98,371.04 756.99,369.26 C757.00,367.48 757.44,364.11 757.97,361.76 C758.51,359.42 759.39,354.93 759.93,351.80 C761.79,340.99 765.06,331.93 767.49,330.82 C770.20,329.59 782.85,333.44 783.74,335.77 C784.04,336.56 782.92,343.12 781.25,350.35 C779.58,357.58 777.77,365.75 777.22,368.50 C776.68,371.25 775.28,376.77 774.11,380.77 C772.94,384.76 771.35,391.96 770.57,396.77 C768.67,408.47 767.44,412.99 765.66,414.77 C763.52,416.91 751.09,417.62 748.61,415.75 ZM 523.69 415.98 C519.23,414.64 518.30,413.36 516.49,405.95 C515.55,402.12 514.38,398.73 513.89,398.43 C513.40,398.13 513.00,396.63 513.00,395.09 C513.00,391.80 510.19,378.51 506.53,364.50 C505.06,358.84 504.05,352.55 504.21,350.01 C504.45,346.22 504.94,345.31 507.27,344.19 C511.55,342.15 519.78,341.11 521.45,342.40 C522.24,343.00 524.27,349.35 525.96,356.50 C527.66,363.65 529.69,372.20 530.48,375.50 C537.17,403.48 538.78,413.35 537.02,415.48 C535.63,417.15 528.48,417.42 523.69,415.98 ZM 724.43 830.02 C721.26,831.23 703.00,831.32 703.00,830.13 C703.00,829.66 707.52,829.05 713.05,828.78 C718.63,828.51 723.61,827.79 724.25,827.15 C725.84,825.56 727.00,825.71 727.00,827.52 C727.00,828.36 725.85,829.49 724.43,830.02 ZM 721.79 844.64 C721.95,845.71 720.95,847.64 719.54,848.96 C716.71,851.62 716.24,851.08 718.46,847.70 C719.65,845.88 719.69,845.02 718.69,842.99 C717.73,841.06 716.47,840.39 713.05,840.00 L 708.65 839.50 L 711.33 838.08 C713.83,836.75 714.25,836.85 717.75,839.68 C719.81,841.34 721.63,843.57 721.79,844.64 ZM 815.20 787.17 C815.05,795.81 815.25,799.83 816.04,801.30 C815.26,799.90 815.00,796.18 815.00,788.50 L 815.00 778.17 L 809.50 776.16 L 812.72 776.08 L 815.39 776.01 ZM 790.00 809.89 C790.00,810.37 788.88,811.51 787.50,812.41 C784.77,814.20 784.31,813.50 786.39,810.75 C787.79,808.91 790.00,808.38 790.00,809.89 ZM 815.42 776.01 L 815.93 776.00 L 816.22 786.75 L 816.50 797.50 L 815.95 786.50 ZM 279.00 304.53 L 279.00 290.90 L 280.78 289.07 C279.25,291.04 279.03,292.83 279.00,304.53 ZM 279.04 580.34 C279.12,651.07 279.48,670.60 281.08,678.65 C281.10,678.78 281.12,678.91 281.14,679.04 C279.39,671.07 279.08,651.79 279.03,576.47 C279.03,577.78 279.03,579.06 279.04,580.34 ZM 341.12 229.35 C341.26,229.60 342.10,230.23 343.75,231.37 C341.72,230.32 340.76,229.50 341.12,229.35 ZM 342.67 229.66 C342.69,229.67 342.72,229.68 342.75,229.69 C343.90,230.10 347.67,233.01 351.31,236.08 C347.75,233.09 344.04,230.26 342.67,229.66 Z" fill="rgb(246,187,65)"/>
<path d="M 480.83 539.94 C480.04,534.84 479.37,531.16 479.06,530.50 C478.48,529.25 478.11,552.22 478.06,592.00 C477.97,660.67 478.02,659.99 472.48,669.44 C468.96,675.46 464.35,679.32 457.33,682.14 L 451.50 684.48 L 392.82 684.80 C360.55,684.97 330.32,684.70 325.64,684.18 C313.98,682.90 305.96,678.69 300.66,670.75 C300.68,670.77 300.69,670.78 300.71,670.80 C301.39,671.51 302.53,672.88 303.23,673.83 C303.93,674.78 305.80,676.56 307.39,677.78 C309.91,679.72 310.42,679.81 311.39,678.50 C312.00,677.67 318.42,674.11 325.65,670.59 C370.67,648.69 406.53,610.48 423.79,566.00 C431.02,547.37 434.26,535.03 435.98,519.50 C436.56,514.31 436.99,479.04 436.99,436.25 L 437.00 362.00 L 455.88 362.00 C469.78,362.00 475.02,362.33 475.76,363.25 C476.31,363.94 477.24,366.98 477.83,370.00 C478.10,371.40 478.63,373.95 479.28,377.02 L 479.28 377.00 C478.78,375.41 478.32,379.40 478.00,388.00 C477.73,395.42 477.64,401.84 477.81,402.25 C477.90,402.47 478.30,402.64 478.86,402.77 C477.31,402.82 475.52,402.86 473.65,402.88 C468.24,402.95 463.46,403.21 463.05,403.47 C462.63,403.73 462.66,406.31 463.10,409.22 C463.55,412.12 465.52,426.88 467.47,442.00 C469.43,457.12 472.33,478.95 473.92,490.50 C475.50,502.05 477.10,515.10 477.47,519.50 C477.84,523.90 478.55,528.62 479.05,530.00 C479.36,530.83 480.04,534.70 480.83,539.94 ZM 343.75 231.38 C344.31,231.76 344.97,232.21 345.72,232.72 C346.99,233.57 348.27,234.52 349.51,235.51 C350.11,236.00 350.70,236.50 351.25,236.98 C357.15,242.19 357.66,246.03 353.04,250.46 L 350.08 253.30 L 344.79 249.28 C326.02,234.99 311.41,230.14 290.57,231.28 C278.82,231.92 269.99,234.41 258.50,240.31 C252.32,243.48 248.32,246.59 240.94,253.96 C232.47,262.41 230.79,264.70 226.27,274.00 C219.54,287.83 218.49,292.64 218.57,309.00 C218.63,321.02 218.93,323.38 221.38,330.50 C222.89,334.90 226.14,341.94 228.60,346.15 C232.83,353.39 240.39,363.01 241.83,362.99 C241.92,362.99 242.04,362.92 242.18,362.79 C241.05,364.16 239.82,365.24 239.04,365.49 C237.92,365.84 237.00,366.71 237.00,367.41 C237.00,369.08 233.74,372.01 231.92,371.98 C230.25,371.95 221.41,362.23 217.84,356.50 C214.89,351.77 208.83,336.97 206.37,328.50 C205.06,324.01 204.63,318.85 204.64,308.00 C204.65,292.36 205.64,287.17 211.22,273.50 C225.98,237.37 260.56,215.49 300.00,217.32 C306.33,217.61 312.85,218.29 314.50,218.81 C316.15,219.34 319.35,220.27 321.61,220.89 C323.87,221.50 327.44,223.36 329.54,225.03 C331.65,226.71 333.93,227.86 334.62,227.59 C335.81,227.14 338.22,227.81 341.11,229.24 C341.09,229.26 341.09,229.29 341.12,229.35 C340.76,229.50 341.72,230.32 343.75,231.37 ZM 713.52 850.81 C712.45,851.88 709.51,851.80 703.50,850.52 C700.20,849.81 693.37,848.92 688.33,848.52 C680.47,847.90 678.84,847.46 676.91,845.40 C675.52,843.93 675.15,843.00 675.95,843.00 C678.04,843.00 675.33,840.30 672.53,839.60 C669.66,838.88 668.75,836.54 669.82,832.58 C670.25,830.98 670.17,827.29 669.64,824.38 C668.47,817.91 669.69,812.96 672.84,811.39 C674.10,810.77 676.22,809.30 677.57,808.13 C678.91,806.96 680.43,806.00 680.93,806.00 C682.24,806.00 686.07,800.93 685.49,799.98 C684.66,798.64 691.03,797.00 697.09,797.00 C703.56,797.00 704.46,797.67 703.03,801.42 C702.36,803.18 701.31,804.00 699.71,804.00 C696.54,804.00 685.91,809.52 683.77,812.28 C681.69,814.96 681.53,817.97 683.34,820.44 C684.46,821.99 686.34,822.31 695.45,822.51 C704.86,822.72 706.43,822.52 707.81,820.91 C708.95,819.58 709.73,819.36 710.65,820.12 C714.16,823.04 715.03,814.74 711.71,809.99 C709.68,807.10 710.89,805.34 713.83,806.91 C714.95,807.51 716.72,808.00 717.75,808.00 C722.53,808.00 724.77,815.31 721.22,819.29 C720.34,820.27 719.56,821.96 719.48,823.04 C719.26,826.02 718.31,826.49 712.17,826.63 C685.85,827.22 686.80,827.11 684.20,829.71 C682.85,831.05 680.85,832.49 679.75,832.90 C677.85,833.60 677.91,833.83 680.98,837.32 C682.86,839.46 685.12,841.00 686.40,841.00 C687.61,841.00 689.16,841.56 689.85,842.25 C690.60,843.00 694.19,843.57 698.80,843.67 C709.86,843.91 712.71,844.70 713.47,847.72 C713.81,849.10 713.84,850.49 713.52,850.81 ZM 640.38 845.00 C639.58,847.94 638.93,848.55 636.31,848.81 C634.59,848.97 632.96,848.74 632.67,848.28 C631.79,846.86 629.94,827.90 630.58,826.87 C631.83,824.85 633.30,814.23 633.40,806.50 C633.48,800.35 633.04,797.58 631.50,794.50 C629.70,790.90 629.03,790.43 624.80,789.84 C622.21,789.48 618.29,788.16 616.08,786.92 C612.45,784.89 612.23,784.55 613.78,783.37 C614.73,782.65 617.64,782.05 620.25,782.03 C622.86,782.01 625.00,781.55 625.00,781.00 C625.00,780.45 627.47,780.00 630.50,780.00 C633.53,780.00 636.00,780.42 636.00,780.93 C636.00,781.44 640.39,782.09 645.75,782.37 C651.11,782.65 656.29,783.00 657.25,783.15 C659.62,783.53 659.48,785.00 657.07,785.00 C656.01,785.00 654.15,786.39 652.94,788.08 C651.74,789.77 649.80,791.54 648.63,792.01 C646.92,792.71 646.84,792.89 648.25,792.94 C649.21,792.97 650.00,793.40 650.00,793.90 C650.00,794.39 648.56,794.73 646.80,794.65 C643.71,794.51 643.55,794.69 642.30,800.00 C641.57,803.08 641.08,810.34 641.18,816.50 C641.49,836.10 641.34,841.44 640.38,845.00 ZM 774.82 851.36 C766.86,852.19 765.79,852.16 764.00,851.00 C763.17,850.47 761.07,850.02 759.32,850.02 C757.57,850.01 755.42,849.28 754.54,848.40 C753.66,847.51 751.26,846.61 749.22,846.40 C742.59,845.70 742.14,845.58 742.67,844.72 C742.96,844.26 742.40,843.00 741.44,841.93 C738.71,838.92 738.19,820.68 740.64,813.87 C743.58,805.71 748.43,802.03 753.16,804.39 C756.08,805.85 756.66,808.61 754.53,810.96 C753.63,811.96 752.82,813.73 752.73,814.89 C752.65,816.05 752.23,817.00 751.80,817.00 C751.38,817.00 749.89,818.72 748.50,820.82 C746.29,824.17 746.11,825.03 747.09,827.83 C747.70,829.59 747.98,831.60 747.71,832.30 C746.94,834.32 749.66,837.34 751.58,836.61 C754.19,835.61 756.00,837.76 755.33,841.09 L 754.75 844.00 L 760.82 844.00 C764.15,844.00 767.16,843.55 767.50,843.00 C767.84,842.45 769.23,842.00 770.59,842.00 C771.96,842.00 774.12,841.31 775.39,840.48 C778.38,838.52 779.50,839.81 780.32,846.11 L 780.92 850.72 ZM 811.42 848.39 C808.77,849.41 806.97,849.08 806.35,847.46 C806.02,846.61 806.02,845.65 806.34,845.33 C806.66,845.01 806.32,843.30 805.58,841.53 C804.05,837.87 802.41,826.74 802.85,823.01 C803.02,821.64 803.66,820.21 804.29,819.82 C805.04,819.36 805.33,816.35 805.14,811.17 C804.96,806.50 805.26,802.96 805.86,802.59 C806.42,802.24 807.99,803.15 809.34,804.61 C811.43,806.87 812.32,807.16 815.36,806.59 C817.43,806.20 819.77,804.84 820.96,803.33 C823.40,800.23 823.52,799.00 821.43,799.91 C823.40,798.82 828.10,797.55 832.10,797.06 L 837.13 796.43 C837.79,796.45 837.86,796.52 837.34,796.63 C836.16,796.90 834.94,798.10 834.63,799.31 C834.29,800.63 832.18,802.47 829.29,803.94 C821.13,808.11 815.04,812.97 814.39,815.84 C814.06,817.30 812.62,819.49 811.20,820.70 C809.33,822.27 808.60,823.86 808.60,826.33 C808.60,829.91 810.75,837.81 812.17,839.45 C813.68,841.18 813.12,847.74 811.42,848.39 ZM 851.14 849.08 C848.65,851.10 843.53,851.67 842.52,850.04 C842.19,849.51 842.61,846.42 843.46,843.17 C845.24,836.27 844.87,827.26 842.65,823.87 C841.80,822.57 840.81,818.58 840.44,815.00 C839.87,809.41 840.04,808.27 841.64,806.84 C844.98,803.86 848.36,804.09 850.56,807.45 C851.96,809.59 852.01,810.84 850.94,817.49 C849.99,823.36 849.98,825.66 850.90,827.68 C851.93,829.93 851.79,830.59 849.91,832.60 C847.18,835.50 847.78,841.07 851.21,844.73 L 853.50 847.17 ZM 786.46 808.68 C784.49,810.65 778.63,810.28 775.73,808.00 C774.33,806.90 772.69,806.00 772.09,806.00 C771.49,806.00 770.95,805.44 770.88,804.75 C770.82,804.06 770.71,802.83 770.63,802.00 C770.56,801.17 771.17,800.19 772.00,799.82 C772.88,799.42 771.85,799.06 769.50,798.94 L 765.50 798.74 L 769.00 798.06 C772.92,797.29 778.50,798.96 778.50,800.90 C778.50,802.78 782.15,805.09 784.12,804.46 C786.49,803.71 788.25,806.89 786.46,808.68 ZM 665.80 787.80 C663.87,789.73 662.27,789.19 661.74,786.44 C661.18,783.51 663.32,780.80 665.53,781.65 C667.30,782.33 667.47,786.13 665.80,787.80 ZM 809.89 782.63 C809.27,783.38 807.88,784.00 806.81,784.00 C803.93,784.00 804.68,778.62 807.62,778.20 C810.14,777.84 811.56,780.61 809.89,782.63 ZM 358.17 242.39 C356.83,240.92 354.28,238.60 351.60,236.33 C354.90,239.06 357.22,240.72 358.17,242.39 ZM 356.08 249.05 C353.37,252.33 348.41,257.09 340.63,264.87 C348.65,256.85 353.39,252.05 356.08,249.05 ZM 244.35 359.75 C245.27,358.22 246.53,357.00 247.22,357.00 C247.94,357.00 255.04,350.48 263.00,342.50 C255.04,350.48 247.96,357.00 247.28,357.00 C246.72,357.00 245.51,358.16 244.35,359.75 ZM 297.93 665.80 C296.79,663.31 295.84,660.55 295.05,657.50 C295.75,660.22 296.83,663.27 297.93,665.80 ZM 829.18 796.73 C825.42,796.95 821.59,797.18 820.00,797.28 C823.61,797.05 826.67,796.87 829.18,796.73 Z" fill="rgb(249,118,3)"/>
<path d="M 437.00 362.47 L 436.99 436.25 C436.99,479.04 436.56,514.31 435.98,519.50 C434.26,535.03 431.02,547.37 423.79,566.00 C406.53,610.48 370.67,648.69 325.65,670.59 C318.42,674.11 312.00,677.67 311.39,678.50 C310.42,679.81 309.91,679.72 307.39,677.78 C305.80,676.56 303.93,674.78 303.23,673.83 C302.53,672.88 301.39,671.51 300.71,670.80 C300.69,670.78 300.68,670.77 300.66,670.75 C299.66,669.24 298.75,667.59 297.93,665.80 C296.83,663.27 295.75,660.22 295.05,657.50 C294.34,654.80 294.01,596.06 294.02,477.25 L 294.03 308.10 L 294.24 332.05 L 294.50 363.09 L 353.50 363.05 C382.35,363.03 417.56,362.78 437.00,362.47 ZM 283.44 285.95 C283.08,286.22 282.75,286.60 282.44,287.11 L 281.36 288.37 C281.15,288.62 280.96,288.84 280.78,289.07 L 279.00 290.90 L 279.00 304.53 C279.00,305.45 279.00,306.44 279.00,307.49 C278.92,322.66 277.77,326.25 272.39,329.93 C270.53,331.21 269.00,332.68 269.00,333.20 C269.00,334.29 258.30,344.94 252.13,350.00 C249.77,351.92 247.66,353.69 247.43,353.91 C247.20,354.14 244.94,352.14 242.42,349.47 C234.65,341.24 229.09,327.45 227.49,312.41 C226.10,299.40 231.88,279.45 240.15,268.69 C244.87,262.55 254.67,253.62 260.73,249.95 C270.81,243.84 278.18,241.80 292.21,241.24 C304.03,240.77 305.53,240.93 313.71,243.48 C318.54,244.98 324.52,247.36 327.00,248.77 C332.59,251.94 340.01,258.90 339.99,260.96 C339.98,261.81 335.21,267.23 329.39,273.00 L 318.81 283.50 L 302.19 283.82 L 285.57 284.14 L 284.20 285.55 C284.12,285.57 284.05,285.60 283.98,285.64 L 283.71 285.64 ZM 326.02 513.52 C329.39,517.11 333.41,516.79 337.60,512.60 L 341.00 509.20 L 341.00 399.91 L 338.55 397.45 C336.67,395.58 335.03,395.00 331.62,395.00 C326.81,395.00 324.32,396.64 323.55,400.32 C322.77,404.00 322.28,501.73 323.01,506.54 C323.40,509.13 324.68,512.09 326.02,513.52 ZM 821.30 799.99 C821.34,799.96 821.38,799.94 821.43,799.91 C823.52,799.00 823.40,800.23 820.96,803.33 C819.77,804.84 817.43,806.20 815.36,806.59 C812.32,807.16 811.43,806.87 809.34,804.61 C807.99,803.15 806.42,802.24 805.86,802.59 C805.26,802.96 804.96,806.50 805.14,811.17 C805.33,816.35 805.04,819.36 804.29,819.82 C803.66,820.21 803.02,821.64 802.85,823.01 C802.41,826.74 804.05,837.87 805.58,841.53 C806.32,843.30 806.66,845.01 806.34,845.33 C806.02,845.65 806.02,846.61 806.35,847.46 C806.97,849.08 808.77,849.41 811.42,848.39 C813.12,847.74 813.68,841.18 812.17,839.45 C810.75,837.81 808.60,829.91 808.60,826.33 C808.60,823.86 809.33,822.27 811.20,820.70 C812.62,819.49 814.06,817.30 814.39,815.84 C815.04,812.97 821.13,808.11 829.29,803.94 C832.18,802.47 834.29,800.63 834.63,799.31 C834.94,798.10 836.16,796.90 837.34,796.63 C837.86,796.52 837.79,796.45 837.13,796.43 L 837.95 796.33 C838.45,796.40 838.77,796.50 838.87,796.63 C839.22,797.11 842.20,798.85 845.50,800.50 C850.57,803.04 851.88,804.27 853.97,808.48 C856.26,813.12 856.46,814.73 856.83,832.04 L 856.85 832.72 C857.14,846.16 857.25,851.21 854.89,853.00 C853.47,854.07 851.15,853.97 847.45,853.81 L 847.14 853.79 L 840.50 853.50 L 839.50 817.04 L 836.73 814.27 C834.40,811.95 833.14,811.51 828.95,811.57 C822.93,811.66 819.03,814.18 817.31,819.09 C816.62,821.06 816.08,828.42 816.04,836.50 C816.00,844.20 815.63,851.03 815.22,851.68 C814.39,852.98 805.78,854.10 802.34,853.35 C800.38,852.93 800.11,852.02 799.47,843.51 C798.58,831.54 799.26,778.40 800.33,777.34 C800.77,776.89 804.46,776.36 808.53,776.16 L 815.39 775.81 L 815.39 776.01 L 812.72 776.08 L 809.50 776.16 L 815.00 778.17 L 815.00 788.50 C815.00,796.18 815.26,799.90 816.04,801.30 C816.31,801.79 816.64,802.00 817.05,802.00 C817.51,802.00 819.42,801.09 821.30,799.99 ZM 713.52 850.81 C713.84,850.49 713.81,849.10 713.47,847.72 C712.71,844.70 709.86,843.91 698.80,843.67 C694.19,843.57 690.60,843.00 689.85,842.25 C689.16,841.56 687.61,841.00 686.40,841.00 C685.12,841.00 682.86,839.46 680.98,837.32 C677.91,833.83 677.85,833.60 679.75,832.90 C680.85,832.49 682.85,831.05 684.20,829.71 C686.80,827.11 685.85,827.22 712.17,826.63 C718.31,826.49 719.26,826.02 719.48,823.04 C719.56,821.96 720.34,820.27 721.22,819.29 C724.77,815.31 722.53,808.00 717.75,808.00 C716.72,808.00 714.95,807.51 713.83,806.91 C710.89,805.34 709.68,807.10 711.71,809.99 C715.03,814.74 714.16,823.04 710.65,820.12 C709.73,819.36 708.95,819.58 707.81,820.91 C706.43,822.52 704.86,822.72 695.45,822.51 C686.34,822.31 684.46,821.99 683.34,820.44 C681.53,817.97 681.69,814.96 683.77,812.28 C685.91,809.52 696.54,804.00 699.71,804.00 C701.31,804.00 702.36,803.18 703.03,801.42 C704.46,797.67 703.56,797.00 697.09,797.00 C696.55,797.00 696.00,797.01 695.45,797.04 C700.66,796.66 706.08,797.31 709.85,799.02 C720.55,803.87 725.20,810.38 726.45,822.24 C726.65,824.16 726.79,825.54 726.83,826.54 C726.45,825.73 725.48,825.92 724.25,827.15 C723.61,827.79 718.63,828.51 713.05,828.78 C707.52,829.05 703.00,829.66 703.00,830.13 C703.00,830.60 705.83,830.87 709.45,830.95 C707.67,830.98 705.81,831.00 703.93,831.00 C687.24,831.00 686.00,831.13 686.00,832.83 C686.00,834.77 689.08,838.02 692.68,839.88 C696.08,841.62 703.95,841.34 708.65,839.50 L 713.05 840.00 C716.47,840.39 717.73,841.06 718.69,842.99 C719.69,845.02 719.65,845.88 718.46,847.70 C717.26,849.54 716.84,850.54 717.17,850.64 C716.11,851.31 714.88,851.98 713.50,852.63 C709.84,854.35 706.89,854.95 702.50,854.87 C687.90,854.59 680.47,851.88 674.72,844.77 C672.54,842.08 671.15,840.18 670.24,838.24 C670.76,838.89 671.52,839.34 672.53,839.60 C675.33,840.30 678.04,843.00 675.95,843.00 C675.15,843.00 675.52,843.93 676.91,845.40 C678.84,847.46 680.47,847.90 688.33,848.52 C693.37,848.92 700.20,849.81 703.50,850.52 C709.51,851.80 712.45,851.88 713.52,850.81 ZM 640.38 845.00 C641.34,841.44 641.49,836.10 641.18,816.50 C641.08,810.34 641.57,803.08 642.30,800.00 C643.55,794.69 643.71,794.51 646.80,794.65 C648.56,794.73 650.00,794.39 650.00,793.90 C650.00,793.40 649.21,792.97 648.25,792.94 C646.84,792.89 646.92,792.71 648.63,792.01 C649.80,791.54 651.74,789.77 652.94,788.08 C654.15,786.39 656.01,785.00 657.07,785.00 C659.48,785.00 659.62,783.53 657.25,783.15 C656.29,783.00 651.11,782.65 645.75,782.37 C640.39,782.09 636.00,781.44 636.00,780.93 C636.00,780.73 635.63,780.55 635.00,780.40 C641.65,780.36 648.71,780.45 655.25,780.70 L 669.00 781.23 L 669.00 787.08 C669.00,794.40 668.07,795.00 656.77,795.00 C651.59,795.00 647.94,795.46 647.20,796.20 C646.33,797.07 646.00,804.54 646.00,823.51 C646.00,843.46 645.69,850.04 644.69,851.41 C642.99,853.73 635.37,854.54 632.00,852.76 L 629.50 851.44 L 628.96 823.47 C628.66,808.09 628.33,795.39 628.21,795.25 C628.09,795.11 623.76,795.00 618.57,795.00 C607.51,795.00 605.99,794.12 606.02,787.68 C606.02,785.38 606.39,782.94 606.83,782.25 C607.34,781.44 615.19,780.82 625.61,780.54 C625.22,780.68 625.00,780.84 625.00,781.00 C625.00,781.55 622.86,782.01 620.25,782.03 C617.64,782.05 614.73,782.65 613.78,783.37 C612.23,784.55 612.45,784.89 616.08,786.92 C618.29,788.16 622.21,789.48 624.80,789.84 C629.03,790.43 629.70,790.90 631.50,794.50 C633.04,797.58 633.48,800.35 633.40,806.50 C633.30,814.23 631.83,824.85 630.58,826.87 C629.94,827.90 631.79,846.86 632.67,848.28 C632.96,848.74 634.59,848.97 636.31,848.81 C638.93,848.55 639.58,847.94 640.38,845.00 ZM 775.44 837.47 C776.51,836.66 778.76,835.98 780.44,835.96 L 782.95 835.94 C782.98,836.00 783.00,836.07 783.00,836.12 C783.00,836.60 783.62,837.00 784.38,837.00 C786.43,837.00 788.55,840.02 788.16,842.40 C787.76,844.88 784.88,848.07 780.91,850.63 L 780.32 846.11 C779.50,839.81 778.38,838.52 775.39,840.48 C774.12,841.31 771.96,842.00 770.59,842.00 C769.23,842.00 767.84,842.45 767.50,843.00 C767.16,843.55 764.15,844.00 760.82,844.00 L 754.75 844.00 L 755.33 841.09 C756.00,837.76 754.19,835.61 751.58,836.61 C749.66,837.34 746.94,834.32 747.71,832.30 C747.98,831.60 747.70,829.59 747.09,827.83 C746.11,825.03 746.29,824.17 748.50,820.82 C749.89,818.72 751.38,817.00 751.80,817.00 C752.23,817.00 752.65,816.05 752.73,814.89 C752.82,813.73 753.63,811.96 754.53,810.96 C756.66,808.61 756.08,805.85 753.16,804.39 C748.43,802.03 743.58,805.71 740.64,813.87 C738.19,820.68 738.71,838.92 741.44,841.93 C742.40,843.00 742.96,844.26 742.67,844.72 C742.14,845.58 742.59,845.70 749.22,846.40 C751.26,846.61 753.66,847.51 754.54,848.40 C755.42,849.28 757.57,850.01 759.32,850.02 C761.07,850.02 763.17,850.47 764.00,851.00 C765.79,852.16 766.86,852.19 774.82,851.36 L 780.73 850.74 C779.69,851.41 778.57,852.03 777.40,852.58 C769.17,856.49 755.08,855.30 746.47,849.98 C739.16,845.46 734.00,835.19 734.00,825.14 C734.00,817.95 738.65,808.05 744.03,803.80 C752.09,797.42 766.40,795.20 776.50,798.75 C778.87,799.58 782.40,801.97 785.25,804.39 C784.90,804.32 784.52,804.33 784.12,804.46 C782.15,805.09 778.50,802.78 778.50,800.90 C778.50,798.96 772.92,797.29 769.00,798.06 L 765.50 798.74 L 769.50 798.94 C771.85,799.06 772.88,799.42 772.00,799.82 C771.17,800.19 770.56,801.17 770.63,802.00 C770.71,802.83 770.82,804.06 770.88,804.75 C770.95,805.44 771.49,806.00 772.09,806.00 C772.69,806.00 774.33,806.90 775.73,808.00 C778.63,810.28 784.49,810.65 786.46,808.68 C787.25,807.90 787.35,806.84 787.01,805.97 C788.31,807.21 789.31,808.36 789.75,809.21 C789.14,808.65 787.51,809.28 786.39,810.75 C784.89,812.73 784.71,813.64 785.74,813.34 C783.95,814.28 781.92,815.12 780.37,815.44 C777.95,815.96 776.39,815.53 773.48,813.55 C768.49,810.16 760.56,809.98 756.51,813.17 C750.99,817.51 749.37,826.89 752.94,833.89 C755.57,839.03 758.87,841.00 764.89,841.00 C769.05,841.00 770.44,840.64 773.00,837.72 C772.05,839.35 772.94,839.36 775.44,837.47 ZM 325.67 562.76 C327.54,564.63 328.89,565.05 332.23,564.81 C335.73,564.55 336.82,563.93 338.72,561.10 C340.66,558.20 341.00,556.41 341.00,548.90 C341.00,544.06 340.50,539.00 339.89,537.66 C337.58,532.59 328.53,531.24 325.21,535.47 C321.04,540.76 321.34,558.43 325.67,562.76 ZM 851.14 849.08 L 853.50 847.17 L 851.21 844.73 C847.78,841.07 847.18,835.50 849.91,832.60 C851.79,830.59 851.93,829.93 850.90,827.68 C849.98,825.66 849.99,823.36 850.94,817.49 C852.01,810.84 851.96,809.59 850.56,807.45 C848.36,804.09 844.98,803.86 841.64,806.84 C840.04,808.27 839.87,809.41 840.44,815.00 C840.81,818.58 841.80,822.57 842.65,823.87 C844.87,827.26 845.24,836.27 843.46,843.17 C842.61,846.42 842.19,849.51 842.52,850.04 C843.53,851.67 848.65,851.10 851.14,849.08 ZM 686.14 820.11 C686.89,820.58 691.69,820.98 696.82,820.98 C710.29,821.01 712.99,818.84 706.96,812.81 C704.09,809.94 703.57,809.79 697.50,810.18 C692.47,810.50 690.52,811.11 688.55,812.95 C685.38,815.94 684.35,818.98 686.14,820.11 ZM 685.65 799.28 C685.41,799.52 685.35,799.75 685.49,799.98 C686.07,800.93 682.24,806.00 680.93,806.00 C680.43,806.00 678.91,806.96 677.57,808.13 C676.22,809.30 674.10,810.77 672.84,811.39 C669.69,812.96 668.47,817.91 669.64,824.38 C670.17,827.29 670.25,830.98 669.82,832.58 C669.44,833.97 669.31,835.15 669.42,836.14 C668.80,834.07 668.53,831.68 668.29,828.12 C667.39,814.46 672.89,805.22 685.36,799.41 ZM 665.80 787.80 C667.47,786.13 667.30,782.33 665.53,781.65 C663.32,780.80 661.18,783.51 661.74,786.44 C662.27,789.19 663.87,789.73 665.80,787.80 ZM 809.89 782.63 C811.56,780.61 810.14,777.84 807.62,778.20 C804.68,778.62 803.93,784.00 806.81,784.00 C807.88,784.00 809.27,783.38 809.89,782.63 ZM 338.26 228.02 C336.67,227.47 335.39,227.30 334.62,227.59 C333.93,227.86 331.65,226.71 329.54,225.03 C327.92,223.74 325.41,222.33 323.31,221.47 C327.72,222.94 332.05,224.82 336.50,227.17 C337.02,227.44 337.63,227.74 338.26,228.02 ZM 837.32 796.26 L 831.50 796.60 C830.74,796.64 829.96,796.69 829.18,796.73 C827.01,796.85 824.42,797.00 821.42,797.19 C823.78,797.02 827.60,796.71 830.87,796.42 C833.44,796.19 835.83,796.14 837.32,796.26 ZM 475.69 363.18 C474.95,362.49 471.41,362.15 463.14,362.04 C472.47,362.00 475.00,362.31 475.63,363.10 C475.65,363.12 475.67,363.15 475.69,363.18 ZM 204.85 298.56 C204.69,301.30 204.64,304.37 204.64,308.00 C204.63,311.79 204.68,314.88 204.81,317.50 C204.42,311.54 204.44,304.60 204.85,298.56 ZM 717.04 839.11 C714.58,837.17 713.85,836.89 712.22,837.63 L 713.99 836.64 ZM 721.79 844.64 C721.66,843.74 720.34,842.01 718.70,840.50 C720.35,842.00 721.68,843.64 721.84,844.43 C722.06,845.58 721.52,846.85 720.29,848.16 C721.29,846.94 721.92,845.51 721.79,844.64 ZM 233.13 241.42 C227.22,246.97 222.03,253.38 217.71,260.54 C222.03,253.34 227.15,246.98 233.13,241.42 ZM 298.74 217.27 C284.05,216.78 270.07,219.57 257.56,225.17 C269.85,219.56 284.51,216.73 298.74,217.27 ZM 726.68 828.38 C726.41,829.25 725.75,829.52 724.51,829.99 C724.51,830.00 724.50,830.00 724.49,830.00 C725.43,829.63 726.25,829.01 726.68,828.38 ZM 815.42 776.01 L 815.41 775.81 L 815.93 775.78 L 816.50 797.50 L 816.22 786.75 L 815.93 776.00 ZM 212.27 271.03 C211.91,271.84 211.56,272.67 211.22,273.50 C210.56,275.12 209.96,276.63 209.42,278.05 C210.31,275.64 211.26,273.30 212.27,271.03 ZM 788.71 811.51 C789.44,810.88 789.95,810.28 790.00,809.93 C790.00,809.96 790.00,809.99 790.00,810.01 C790.00,810.37 789.50,810.90 788.71,811.51 ZM 353.01 237.49 C352.57,237.12 352.10,236.74 351.60,236.33 C351.50,236.25 351.41,236.17 351.31,236.08 L 351.30 236.08 C350.77,235.63 350.23,235.18 349.70,234.74 C350.82,235.63 351.94,236.57 353.01,237.49 ZM 206.52 286.96 C206.17,288.34 205.88,289.70 205.64,291.10 C205.89,289.53 206.18,288.15 206.51,287.00 ZM 782.14 835.15 L 781.00 834.50 C780.83,834.40 780.67,834.31 780.51,834.22 C781.14,834.52 781.71,834.84 782.14,835.15 ZM 341.17 229.22 C341.15,229.23 341.13,229.23 341.11,229.24 C341.00,229.19 340.90,229.13 340.79,229.08 C340.92,229.13 341.05,229.18 341.17,229.22 ZM 358.17 242.39 C358.16,242.37 358.15,242.35 358.14,242.33 C358.44,242.67 358.70,242.98 358.88,243.25 C358.72,243.01 358.47,242.72 358.17,242.39 Z" fill="rgb(250,142,4)"/>
<path d="M 0.00 512.00 L 0.00 0.00 L 512.00 0.00 L 1024.00 0.00 L 1024.00 512.00 L 1024.00 1024.00 L 512.00 1024.00 L 0.00 1024.00 L 0.00 512.00 ZM 573.07 897.39 C580.94,895.06 585.64,892.42 591.20,887.22 C595.88,882.84 603.33,871.25 603.33,868.36 C603.33,867.61 603.66,867.00 604.05,867.00 C604.44,867.00 605.06,865.99 605.43,864.75 C606.17,862.24 605.63,861.76 610.50,869.37 C611.67,871.20 614.89,873.69 618.24,875.37 C623.17,877.84 625.49,878.31 634.74,878.75 C647.72,879.36 656.26,877.54 662.07,872.95 L 665.90 869.91 L 670.15 872.08 C681.93,878.09 695.98,880.78 706.79,879.10 C714.75,877.87 723.17,875.29 724.11,873.80 C724.45,873.26 725.02,872.88 725.37,872.93 C725.73,872.99 727.36,872.35 729.00,871.50 C731.83,870.03 732.27,870.11 738.01,873.01 C750.39,879.25 766.94,881.07 779.84,877.60 C785.20,876.16 786.73,876.10 789.84,877.17 C794.50,878.80 818.95,878.79 824.65,877.16 C827.43,876.37 829.63,876.29 831.31,876.93 C832.69,877.45 838.70,878.19 844.66,878.56 C856.29,879.30 867.33,877.49 869.60,874.49 C870.20,873.69 870.94,873.27 871.23,873.57 C872.28,874.61 878.01,866.49 879.60,861.71 C880.96,857.61 881.13,853.23 880.73,833.68 C880.21,808.69 879.50,804.37 874.41,795.02 C868.84,784.77 855.59,775.43 843.98,773.56 C840.85,773.06 840.28,772.47 838.75,768.15 C836.50,761.81 833.87,758.59 828.28,755.32 C823.82,752.70 823.27,752.63 807.97,752.69 C792.60,752.74 792.13,752.80 786.92,755.62 C781.48,758.55 778.83,761.91 776.44,768.86 L 775.19 772.50 L 766.34 772.72 C761.48,772.83 756.83,773.00 756.00,773.08 C749.21,773.72 735.58,778.85 733.60,781.50 C732.66,782.76 731.18,782.31 723.50,778.46 C715.35,774.38 713.43,773.84 703.17,772.78 L 691.84 771.61 L 689.78 767.56 C687.56,763.20 684.99,760.56 681.00,758.54 C677.60,756.82 645.35,755.86 618.21,756.68 L 596.74 757.33 L 592.23 760.41 C589.48,762.29 586.65,765.45 584.98,768.50 C581.79,774.34 575.94,778.03 573.32,775.85 C571.16,774.06 556.14,772.41 544.50,772.70 C539.00,772.83 526.85,773.10 517.50,773.30 C508.15,773.50 499.60,773.92 498.50,774.24 C492.32,776.02 491.00,776.04 491.00,774.35 C491.00,773.43 490.72,772.95 490.38,773.29 C490.04,773.63 489.04,773.19 488.17,772.31 C486.80,770.94 484.80,770.81 474.04,771.41 C467.14,771.79 458.18,772.69 454.11,773.42 C448.78,774.38 444.61,774.50 439.11,773.84 C428.84,772.61 412.60,773.72 407.34,776.00 C403.81,777.53 402.88,777.61 401.28,776.48 C400.24,775.75 397.84,774.77 395.94,774.29 C393.05,773.57 392.07,772.52 389.77,767.73 C381.64,750.78 362.44,743.58 343.50,750.37 C341.19,751.20 333.60,752.06 325.50,752.41 C311.25,753.02 303.01,754.98 303.00,757.75 C303.00,758.44 302.66,758.95 302.25,758.88 C299.98,758.52 299.03,759.54 296.64,764.88 C295.19,768.11 294.00,771.32 294.00,772.02 C294.00,773.00 292.17,773.16 286.25,772.70 C277.40,772.03 266.17,773.21 258.50,775.63 L 253.25 777.29 L 246.26 771.64 C238.32,765.23 227.31,759.80 218.50,757.95 C209.18,756.00 161.62,756.22 156.89,758.24 C149.34,761.46 145.49,768.46 144.55,780.65 C143.33,796.52 143.12,834.90 144.17,848.50 C145.37,864.07 146.61,867.69 152.43,872.80 C158.31,877.97 161.91,878.52 188.21,878.32 C215.60,878.11 219.91,877.37 233.24,870.58 L 241.98 866.12 L 246.98 869.48 C253.45,873.84 261.53,876.86 271.50,878.63 C280.43,880.23 286.82,879.82 297.68,876.94 C304.34,875.18 305.14,875.16 308.64,876.62 C311.76,877.93 317.55,878.23 341.96,878.35 C368.61,878.49 371.96,878.32 376.17,876.64 C380.72,874.84 380.98,874.84 386.17,876.64 C390.30,878.08 394.42,878.50 404.50,878.50 C419.53,878.50 425.05,876.98 429.85,871.52 L 432.79 868.17 L 441.75 872.64 C456.94,880.21 470.39,881.48 486.33,876.85 C492.79,874.97 493.42,874.96 497.83,876.50 C500.40,877.39 506.60,878.38 511.62,878.70 C520.35,879.25 520.81,879.40 522.44,882.17 C523.38,883.75 525.33,886.24 526.78,887.69 C529.70,890.61 541.79,896.51 547.69,897.90 C554.05,899.40 567.19,899.13 573.07,897.39 ZM 465.25 738.59 C473.10,736.45 484.43,730.89 490.66,726.12 C498.82,719.87 499.82,719.50 502.34,721.79 C513.79,732.17 535.10,740.98 545.74,739.72 C548.37,739.41 556.15,737.07 563.01,734.54 C569.88,732.00 576.62,729.69 578.00,729.41 C579.38,729.13 582.97,728.27 586.00,727.50 C589.03,726.73 595.53,725.60 600.44,725.00 C605.36,724.39 611.66,723.38 614.44,722.75 C622.89,720.82 663.38,721.23 677.00,723.38 C692.41,725.80 709.60,730.22 717.80,733.87 C723.73,736.51 726.24,737.37 732.00,738.72 C742.21,741.12 750.71,739.56 764.27,732.77 C774.42,727.69 783.56,720.09 788.88,712.30 C790.09,710.53 791.62,709.29 792.29,709.53 C795.30,710.64 796.26,708.27 796.22,699.86 C796.19,695.26 797.90,679.12 800.00,664.00 C802.10,648.88 804.56,630.88 805.45,624.00 C810.04,588.66 814.12,559.24 815.92,548.50 C817.03,541.90 818.88,527.95 820.03,517.50 C821.18,507.05 823.18,491.75 824.48,483.50 C825.79,475.25 827.36,464.23 827.99,459.00 C828.62,453.77 830.05,442.98 831.17,435.00 C832.29,427.02 832.97,418.20 832.69,415.39 C832.18,410.39 828.41,400.00 827.09,400.00 C826.73,400.00 825.65,398.68 824.70,397.06 C823.74,395.44 822.12,393.85 821.09,393.53 C818.68,392.76 817.92,389.75 819.12,385.71 C821.54,377.52 825.82,356.69 825.33,355.42 C825.03,354.64 825.26,354.00 825.83,354.00 C826.41,354.00 826.88,353.21 826.90,352.25 C826.91,351.29 828.06,345.77 829.45,340.00 C832.51,327.30 832.64,321.16 830.01,313.52 C825.56,300.61 817.59,295.19 795.26,289.92 C787.69,288.13 780.94,286.24 780.25,285.71 C779.56,285.19 779.00,283.35 778.99,281.63 C778.97,273.72 769.80,261.47 760.70,257.20 C754.79,254.42 708.18,247.73 698.51,248.28 C694.54,248.50 694.53,248.49 693.33,243.70 C690.88,233.89 684.78,226.49 675.41,221.96 C670.59,219.62 670.17,219.59 638.67,219.64 C612.44,219.68 606.65,219.94 605.92,221.10 C605.43,221.87 605.02,222.15 605.02,221.73 C604.99,220.44 597.73,224.71 593.99,228.21 C589.29,232.61 587.44,235.66 585.54,242.22 L 583.94 247.72 L 575.72 248.39 C568.94,248.95 555.98,250.55 542.00,252.56 C540.62,252.76 536.89,253.14 533.70,253.41 C526.13,254.04 517.72,256.52 512.95,259.53 L 509.14 261.94 L 501.32 258.27 L 493.50 254.61 L 442.26 254.48 C414.07,254.41 390.68,254.01 390.28,253.61 C389.87,253.20 389.68,249.86 389.85,246.18 C390.41,233.98 385.20,224.62 371.28,212.82 C367.60,209.70 364.23,207.36 363.79,207.63 C363.36,207.90 363.00,207.66 363.00,207.10 C363.00,204.45 338.45,192.65 326.37,189.51 C319.12,187.62 305.39,185.88 297.30,185.82 C288.69,185.76 267.00,188.12 267.00,189.12 C267.00,189.57 266.25,189.65 265.34,189.30 C264.12,188.83 263.89,189.02 264.50,190.00 C265.11,190.99 264.88,191.17 263.62,190.68 C260.55,189.51 232.16,201.88 229.79,205.43 C229.39,206.02 228.66,206.50 228.15,206.50 C226.18,206.50 217.14,213.84 209.28,221.82 C201.77,229.44 191.09,244.24 186.78,253.00 C183.19,260.28 181.11,266.00 182.04,266.00 C182.57,266.00 182.94,267.24 182.86,268.75 C182.75,271.11 182.67,271.18 182.29,269.25 C181.44,264.84 180.30,267.16 177.58,278.83 C170.91,307.44 174.42,337.78 187.43,364.00 C192.16,373.52 202.28,387.31 208.99,393.37 C218.48,401.95 233.71,405.43 243.26,401.21 C245.78,400.09 248.10,399.43 248.41,399.74 C248.72,400.05 249.00,457.73 249.02,527.90 C249.07,655.70 249.51,675.31 252.55,686.50 C257.58,704.98 271.80,722.31 289.12,731.05 C300.76,736.92 307.74,739.19 316.50,739.94 C320.90,740.32 354.88,740.52 392.00,740.39 C449.67,740.19 460.34,739.93 465.25,738.59 ZM 553.87 884.91 C547.85,883.99 540.21,880.58 536.75,877.26 C532.75,873.43 533.06,868.82 538.00,859.00 C542.56,849.92 545.73,847.48 551.54,848.57 L 555.02 849.23 L 551.65 841.36 C549.80,837.04 547.26,831.14 546.02,828.25 L 543.75 823.00 L 539.00 823.00 C534.48,823.00 534.22,823.15 533.62,826.12 C533.28,827.84 533.00,835.71 533.00,843.61 L 533.00 857.97 L 530.13 861.18 C527.35,864.29 526.96,864.41 517.88,864.81 C506.41,865.31 500.64,863.95 498.30,860.21 C497.37,858.72 496.49,857.34 496.36,857.14 C496.22,856.94 494.55,857.73 492.65,858.91 C482.17,865.39 466.20,867.17 454.75,863.13 C444.10,859.38 433.64,850.74 431.47,843.90 C430.61,841.19 429.12,841.55 427.91,844.75 C427.34,846.26 425.30,850.80 423.36,854.83 C419.10,863.72 416.81,865.00 405.16,865.00 C389.71,865.00 388.24,863.92 381.99,847.98 C379.61,841.89 377.28,836.67 376.83,836.39 C376.37,836.11 376.00,840.44 376.00,846.01 C376.00,862.31 373.33,865.01 357.18,864.99 C351.35,864.99 347.54,864.49 345.57,863.46 C342.93,862.09 342.24,862.09 338.80,863.46 C333.90,865.42 319.18,865.52 314.64,863.62 C312.83,862.87 310.46,861.03 309.37,859.54 L 307.40 856.83 L 303.88 858.91 C289.25,867.54 270.09,867.37 256.00,858.48 C254.07,857.26 250.32,853.93 247.66,851.08 L 242.81 845.89 L 237.41 851.00 C226.81,861.02 216.58,864.01 190.50,864.72 C169.56,865.28 164.85,864.60 160.93,860.43 L 158.50 857.84 L 158.20 818.76 C157.87,777.63 158.07,775.47 162.36,772.46 C165.27,770.42 206.52,770.40 216.12,772.44 C229.03,775.17 238.02,781.30 244.80,792.00 C246.72,795.03 248.41,797.64 248.55,797.82 C248.69,797.99 250.99,796.59 253.65,794.71 C261.76,788.97 267.03,787.50 279.50,787.50 C289.46,787.50 291.07,787.76 296.50,790.31 C299.80,791.85 303.70,794.26 305.17,795.67 L 307.84 798.22 L 308.17 785.13 C308.49,772.36 308.57,771.97 311.27,769.27 C313.93,766.61 314.51,766.49 325.27,766.22 C333.11,766.03 337.26,766.34 339.00,767.26 C341.26,768.45 341.93,768.28 346.00,765.54 C349.95,762.87 351.36,762.50 357.50,762.50 C366.83,762.50 371.53,764.91 375.23,771.58 C377.29,775.31 377.96,777.89 377.98,782.25 L 378.00 788.00 L 386.05 788.00 C395.87,788.00 397.61,789.33 400.93,799.30 C402.16,802.97 403.51,806.19 403.93,806.46 C404.36,806.72 405.98,803.70 407.53,799.75 C412.04,788.26 412.49,788.00 427.92,788.00 C439.92,788.00 441.08,788.16 442.92,790.14 L 444.91 792.28 L 450.21 789.92 C454.72,787.91 457.12,787.56 466.50,787.54 C479.18,787.52 483.83,788.66 490.89,793.52 L 495.96 797.01 L 496.59 794.49 C496.94,793.10 498.38,791.06 499.79,789.95 C502.10,788.13 503.93,787.92 517.93,787.81 C548.06,787.59 564.39,788.16 567.00,789.52 C568.72,790.42 570.41,793.12 572.41,798.17 C574.01,802.20 575.64,805.87 576.04,806.33 C576.44,806.79 578.01,803.89 579.55,799.88 C583.02,790.79 585.66,788.20 591.84,787.80 L 596.50 787.50 L 596.80 781.85 C597.02,777.64 597.67,775.57 599.35,773.75 C601.50,771.44 602.36,771.29 616.56,770.74 C624.78,770.43 641.18,770.40 653.00,770.68 C671.68,771.13 674.74,771.43 676.32,772.95 C678.38,774.93 679.94,780.64 679.98,786.36 C680.00,789.61 680.27,790.11 681.75,789.54 C686.51,787.72 694.12,786.81 701.45,787.19 C711.94,787.74 720.82,791.65 726.55,798.24 L 730.48 802.76 L 735.66 798.03 C744.85,789.63 754.76,786.39 768.62,787.26 C774.52,787.62 778.41,788.50 782.53,790.38 C785.67,791.82 788.41,793.00 788.62,793.00 C788.83,793.00 789.00,788.93 789.00,783.95 C789.00,768.47 791.69,766.00 808.55,766.00 L 819.20 766.00 L 822.60 769.40 C825.82,772.62 826.00,773.18 826.00,779.76 L 826.00 786.72 L 834.80 787.22 C852.86,788.25 863.20,797.18 865.95,814.14 C867.34,822.71 867.30,853.84 865.89,857.89 C864.15,862.88 858.94,865.00 848.43,865.00 C838.77,865.00 833.16,862.84 831.10,858.33 C830.44,856.86 830.00,849.16 830.00,838.88 C830.00,823.20 829.86,821.88 828.25,822.19 C826.69,822.49 826.45,824.38 826.00,840.06 C825.43,860.00 824.74,862.15 818.26,863.94 C812.84,865.45 799.53,865.25 795.60,863.61 C793.76,862.84 791.59,861.26 790.78,860.09 L 789.29 857.98 L 784.74 860.52 C777.68,864.47 767.41,866.26 759.23,864.97 C750.91,863.66 741.59,859.43 736.08,854.45 L 731.91 850.68 L 728.37 854.43 C726.42,856.50 722.05,859.48 718.66,861.07 C695.87,871.74 667.18,861.07 659.91,839.23 C657.06,830.67 657.50,816.68 660.81,810.29 C662.02,807.97 663.00,805.84 663.00,805.54 C663.00,805.24 661.42,805.00 659.50,805.00 L 656.00 805.00 L 656.00 831.28 C656.00,853.47 655.76,857.90 654.44,859.78 C651.72,863.67 647.72,865.00 638.80,864.99 C627.73,864.99 623.40,863.70 620.95,859.69 C619.16,856.75 619.01,854.49 619.00,830.75 C619.00,794.26 620.05,793.42 597.47,848.00 C594.63,854.88 590.92,863.20 589.23,866.50 C582.24,880.21 568.83,887.19 553.87,884.91 ZM 571.99 871.63 C574.19,870.17 577.09,867.30 578.45,865.24 C580.43,862.25 607.00,800.07 607.00,798.44 C607.00,798.20 603.49,798.00 599.20,798.00 L 591.39 798.00 L 586.75 809.25 C584.20,815.44 580.88,823.54 579.37,827.27 C577.86,830.99 576.33,833.69 575.96,833.27 C575.25,832.44 567.76,814.49 563.87,804.26 L 561.50 798.03 L 552.83 798.01 L 544.16 798.00 L 549.46 810.75 C552.37,817.76 555.98,826.20 557.47,829.50 C562.41,840.43 567.00,852.23 567.00,853.99 C567.00,854.95 566.03,856.97 564.84,858.48 C562.90,860.95 562.22,861.17 558.09,860.69 C555.57,860.39 552.49,859.84 551.25,859.46 C549.26,858.85 548.71,859.40 546.59,864.13 C543.84,870.27 544.17,871.04 550.50,873.46 C556.69,875.82 566.98,874.94 571.99,871.63 ZM 292.57 852.89 C295.68,851.72 299.63,849.50 301.36,847.94 L 304.50 845.10 L 299.87 840.43 L 295.24 835.77 L 291.39 838.38 C288.32,840.47 286.35,841.00 281.70,841.00 C275.35,841.00 272.95,840.11 268.75,836.19 C262.56,830.42 265.04,829.70 289.57,830.15 L 308.23 830.50 L 307.78 823.43 C306.73,807.07 295.57,797.00 278.48,797.00 C259.20,797.00 245.99,812.00 249.00,830.49 C250.74,841.18 258.51,850.09 269.00,853.43 C275.84,855.61 285.93,855.37 292.57,852.89 ZM 483.79 852.14 C488.38,849.77 492.00,846.62 492.00,845.02 C492.00,843.64 485.41,837.00 484.04,837.00 C483.43,837.00 481.07,837.94 478.81,839.09 C470.77,843.20 458.87,840.51 455.40,833.81 C453.40,829.94 453.49,829.83 458.75,830.01 C461.36,830.10 471.04,830.14 480.25,830.09 L 497.00 830.00 L 496.99 826.75 C496.97,822.70 494.82,814.48 492.74,810.50 C490.76,806.72 485.55,801.78 481.00,799.37 C478.27,797.92 475.31,797.51 467.50,797.51 C458.81,797.50 456.86,797.83 452.62,799.99 C439.11,806.89 433.28,823.44 439.57,837.00 C445.46,849.68 455.35,855.24 471.00,854.67 C477.38,854.44 480.57,853.81 483.79,852.14 ZM 713.50 852.63 C719.24,849.93 722.32,846.90 721.84,844.43 C721.65,843.49 719.81,841.35 717.74,839.68 L 713.99 836.64 L 710.11 838.82 C705.78,841.25 696.46,841.82 692.68,839.88 C689.08,838.02 686.00,834.77 686.00,832.83 C686.00,831.13 687.24,831.00 703.93,831.00 C713.80,831.00 723.06,830.55 724.51,829.99 C727.12,829.00 727.15,828.89 726.45,822.24 C725.20,810.38 720.55,803.87 709.85,799.02 C703.39,796.09 692.11,796.27 685.36,799.41 C672.89,805.22 667.39,814.46 668.29,828.12 C668.84,836.49 669.59,838.43 674.72,844.77 C680.47,851.88 687.90,854.59 702.50,854.87 C706.89,854.95 709.84,854.35 713.50,852.63 ZM 777.40 852.58 C783.10,849.88 787.65,845.57 788.16,842.40 C788.55,840.02 786.43,837.00 784.38,837.00 C783.62,837.00 783.00,836.60 783.00,836.12 C783.00,835.64 781.65,834.68 779.99,834.00 C777.22,832.85 776.82,832.95 774.92,835.38 C770.92,840.47 769.96,841.00 764.89,841.00 C758.87,841.00 755.57,839.03 752.94,833.89 C749.37,826.89 750.99,817.51 756.51,813.17 C760.56,809.98 768.49,810.16 773.48,813.55 C776.39,815.53 777.95,815.96 780.37,815.44 C783.91,814.70 790.00,811.26 790.00,810.01 C790.00,807.80 781.08,800.35 776.50,798.75 C766.40,795.20 752.09,797.42 744.03,803.80 C738.65,808.05 734.00,817.95 734.00,825.14 C734.00,835.19 739.16,845.46 746.47,849.98 C755.08,855.30 769.17,856.49 777.40,852.58 ZM 212.20 852.88 C232.00,848.68 243.76,831.49 240.86,811.00 C239.08,798.47 233.00,790.26 221.44,784.79 L 214.50 781.50 L 191.75 781.17 L 169.00 780.84 L 169.00 817.42 L 169.00 854.00 L 187.95 854.00 C198.37,854.00 209.29,853.49 212.20,852.88 ZM 335.00 815.00 L 335.00 776.00 L 326.50 776.00 L 318.00 776.00 L 318.00 815.00 L 318.00 854.00 L 326.50 854.00 L 335.00 854.00 L 335.00 815.00 ZM 366.00 826.00 L 366.00 798.00 L 357.50 798.00 L 349.00 798.00 L 349.00 826.00 L 349.00 854.00 L 357.50 854.00 L 366.00 854.00 L 366.00 826.00 ZM 417.05 843.75 C419.40,838.11 424.62,825.73 428.66,816.22 C432.70,806.72 436.00,798.73 436.00,798.47 C436.00,798.21 432.25,798.00 427.67,798.00 L 419.34 798.00 L 415.61 807.25 C413.55,812.34 410.24,820.49 408.25,825.36 L 404.62 834.22 L 402.38 829.14 C401.15,826.35 397.80,818.20 394.94,811.03 L 389.73 798.00 L 381.37 798.00 C376.76,798.00 373.00,798.42 373.00,798.93 C373.00,799.44 376.28,807.65 380.30,817.18 C384.31,826.71 389.34,838.89 391.48,844.25 L 395.37 854.00 L 404.07 854.00 L 412.78 854.00 L 417.05 843.75 ZM 523.02 838.75 C523.04,825.81 523.34,822.85 524.99,819.21 C527.23,814.27 531.98,811.67 537.86,812.18 L 541.47 812.49 L 541.82 804.75 L 542.18 797.00 L 538.74 797.00 C534.20,797.00 529.25,798.72 525.25,801.69 L 522.00 804.10 L 522.00 801.05 L 522.00 798.00 L 514.00 798.00 L 506.00 798.00 L 506.00 826.00 L 506.00 854.00 L 514.50 854.00 L 523.00 854.00 L 523.02 838.75 ZM 644.69 851.41 C645.69,850.04 646.00,843.46 646.00,823.51 C646.00,804.54 646.33,797.07 647.20,796.20 C647.94,795.46 651.59,795.00 656.77,795.00 C668.07,795.00 669.00,794.40 669.00,787.08 L 669.00 781.23 L 655.25 780.70 C634.19,779.90 607.79,780.74 606.83,782.25 C606.39,782.94 606.02,785.38 606.02,787.68 C605.99,794.12 607.51,795.00 618.57,795.00 C623.76,795.00 628.09,795.11 628.21,795.25 C628.33,795.39 628.66,808.09 628.96,823.47 L 629.50 851.44 L 632.00 852.76 C635.37,854.54 642.99,853.73 644.69,851.41 ZM 815.22 851.68 C815.63,851.03 816.00,844.20 816.04,836.50 C816.08,828.42 816.62,821.06 817.31,819.09 C819.03,814.18 822.93,811.66 828.95,811.57 C833.14,811.51 834.40,811.95 836.73,814.27 L 839.50 817.04 L 840.00 835.27 L 840.50 853.50 L 847.14 853.79 C857.42,854.25 857.32,854.47 856.83,832.04 C856.46,814.73 856.26,813.12 853.97,808.48 C851.88,804.27 850.57,803.04 845.50,800.50 C842.20,798.85 839.22,797.11 838.87,796.63 C838.52,796.15 834.92,796.06 830.87,796.42 C826.82,796.78 821.92,797.17 820.00,797.29 L 816.50 797.50 L 816.22 786.64 L 815.93 775.78 L 808.53 776.16 C804.46,776.36 800.77,776.89 800.33,777.34 C799.26,778.40 798.58,831.54 799.47,843.51 C800.11,852.02 800.38,852.93 802.34,853.35 C805.78,854.10 814.39,852.98 815.22,851.68 ZM 768.10 828.93 C771.43,826.56 771.67,825.39 769.35,822.83 C767.13,820.38 762.37,820.44 761.04,822.93 C759.56,825.68 759.73,826.73 762.00,829.00 C764.47,831.47 764.53,831.47 768.10,828.93 ZM 365.08 787.08 C373.15,779.01 362.62,768.01 352.06,773.47 C348.83,775.14 346.97,779.40 347.73,783.36 C349.04,790.21 359.66,792.49 365.08,787.08 ZM 311.24 723.01 C291.48,717.78 274.48,701.62 267.64,681.58 C265.59,675.56 265.56,674.05 265.03,518.22 L 264.50 360.95 L 252.50 372.88 C238.41,386.89 235.22,388.50 227.49,385.55 C221.99,383.45 215.12,376.71 208.04,366.46 C198.44,352.57 193.09,337.02 190.96,316.81 C187.51,283.98 201.51,249.82 227.51,227.65 C240.29,216.76 259.21,207.43 274.72,204.39 C284.49,202.47 304.15,202.25 314.00,203.95 C330.70,206.84 348.24,215.06 361.63,226.27 C370.12,233.38 373.00,237.98 373.00,244.44 C373.00,250.65 371.52,253.15 362.57,261.97 C358.41,266.09 355.00,269.80 355.00,270.22 C355.00,270.65 385.29,271.00 422.32,271.00 L 489.64 271.00 L 495.00 273.75 C499.30,275.95 500.96,277.57 503.36,281.89 C506.17,286.96 506.38,288.10 506.81,300.64 C507.31,315.44 507.02,314.97 514.25,312.81 L 518.24 311.61 L 517.61 306.06 C517.27,303.00 516.72,296.23 516.39,291.00 C515.82,282.13 515.94,281.27 518.15,278.00 C521.96,272.38 525.59,271.27 551.08,267.92 C578.05,264.38 582.78,264.46 587.02,268.52 C590.75,272.10 591.85,275.50 593.34,288.21 L 594.55 298.50 L 597.52 298.50 L 600.50 298.50 L 601.00 271.95 C601.57,241.80 601.68,241.36 609.58,237.86 C613.67,236.05 616.02,235.93 641.43,236.20 L 668.87 236.50 L 672.02 239.50 C673.75,241.15 675.70,243.40 676.34,244.50 C677.07,245.76 677.69,254.11 678.00,267.00 L 678.50 287.50 L 682.00 287.50 C685.46,287.50 685.51,287.44 686.64,281.72 C688.97,269.93 692.12,265.97 699.72,265.28 C702.35,265.04 715.05,266.23 727.93,267.92 C740.82,269.62 751.73,271.00 752.18,271.00 C752.63,271.00 754.77,272.60 756.94,274.57 C762.06,279.19 763.37,283.29 762.51,291.91 L 761.83 298.71 L 782.66 303.92 C807.82,310.21 811.07,311.52 813.33,316.29 C816.84,323.68 817.02,322.49 803.40,381.50 C797.97,405.00 797.99,403.58 803.01,404.39 C812.24,405.86 816.36,410.52 816.37,419.50 C816.38,424.04 812.96,450.77 806.52,496.50 C805.21,505.85 803.44,518.67 802.60,525.00 C798.62,554.84 795.87,575.07 795.00,581.00 C794.02,587.65 789.09,623.58 784.51,657.50 C778.71,700.42 778.30,701.92 770.18,709.83 C763.36,716.47 749.77,723.25 742.24,723.77 C737.27,724.11 734.92,723.55 724.63,719.55 C674.70,700.16 606.85,700.45 556.51,720.29 C544.17,725.15 540.05,725.00 527.82,719.24 C513.57,712.53 504.95,702.62 503.44,691.24 C503.05,688.36 502.38,686.00 501.93,686.00 C501.49,686.00 501.19,686.84 501.26,687.87 C501.49,690.81 495.03,700.84 488.93,707.00 C482.39,713.62 474.04,718.91 465.00,722.16 L 458.50 724.50 L 388.50 724.71 C322.24,724.92 318.11,724.83 311.24,723.01 ZM 464.00 708.27 C475.33,703.67 485.36,693.27 490.19,681.11 C492.22,675.99 492.45,673.48 492.76,652.50 C493.09,630.13 492.99,628.69 489.02,600.00 C486.78,583.78 483.82,561.95 482.45,551.50 C481.09,541.05 479.55,531.38 479.05,530.00 C478.55,528.62 477.84,523.90 477.47,519.50 C477.10,515.10 475.50,502.05 473.92,490.50 C472.33,478.95 469.43,457.12 467.47,442.00 C465.52,426.88 463.55,412.12 463.10,409.22 C462.66,406.31 462.63,403.73 463.05,403.47 C463.46,403.21 468.24,402.95 473.65,402.88 C479.07,402.82 483.79,402.59 484.14,402.39 C484.50,402.18 483.46,396.05 481.84,388.76 C480.22,381.47 478.41,373.02 477.83,370.00 C477.24,366.98 476.25,363.87 475.63,363.10 C474.69,361.92 469.47,361.80 443.50,362.35 C426.45,362.72 385.95,363.03 353.50,363.05 L 294.50 363.09 L 294.24 332.05 L 293.97 301.00 L 385.99 301.00 L 478.00 301.00 L 478.00 310.57 C478.00,320.04 478.02,320.13 480.25,319.41 C481.49,319.01 484.75,318.19 487.50,317.57 L 492.50 316.46 L 492.79 304.98 C493.11,292.39 492.77,289.92 490.43,287.57 C489.03,286.17 479.86,286.00 404.93,286.00 C358.77,286.00 321.00,285.67 321.00,285.26 C321.00,284.85 329.83,275.68 340.63,264.87 C358.88,246.61 360.17,245.08 358.88,243.25 C356.61,240.02 344.69,230.31 342.00,229.50 C340.62,229.09 338.15,228.04 336.50,227.17 C324.59,220.89 313.56,217.95 299.50,217.30 C283.99,216.59 267.90,219.88 254.89,226.45 C230.37,238.82 214.66,258.47 206.51,287.00 C203.93,296.00 203.85,319.85 206.37,328.50 C208.83,336.97 214.89,351.77 217.84,356.50 C221.41,362.23 230.25,371.95 231.92,371.98 C233.74,372.01 237.00,369.08 237.00,367.41 C237.00,366.71 237.92,365.84 239.04,365.49 C240.16,365.13 242.19,363.08 243.55,360.92 C244.91,358.76 246.59,357.00 247.28,357.00 C247.96,357.00 255.04,350.48 263.00,342.50 C270.96,334.52 277.82,328.00 278.24,328.00 C278.66,328.00 279.01,405.29 279.01,499.75 C279.02,683.76 278.81,675.86 283.99,685.98 C287.06,692.00 296.90,702.09 302.87,705.33 C313.21,710.96 312.47,710.91 388.50,710.70 C458.40,710.50 458.51,710.50 464.00,708.27 ZM 553.25 707.14 C578.45,697.67 602.01,693.30 633.00,692.33 C669.86,691.17 703.05,696.32 731.06,707.53 C739.68,710.97 740.56,711.14 744.12,709.96 C751.95,707.38 759.43,702.46 762.57,697.83 C765.96,692.84 765.67,694.38 771.55,651.00 C774.99,625.71 776.53,614.49 786.02,546.00 C788.72,526.47 793.41,492.05 796.44,469.50 C799.48,446.95 802.25,426.36 802.61,423.75 L 803.27 419.00 L 792.14 419.00 C782.20,419.00 781.00,418.81 781.00,417.25 C781.00,416.29 782.34,410.10 783.97,403.50 C788.67,384.55 802.00,326.35 802.00,324.80 C802.00,323.80 795.87,321.90 780.64,318.20 C768.89,315.34 758.34,313.00 757.18,313.00 C755.60,313.00 754.83,313.92 754.07,316.75 C752.80,321.48 746.05,349.74 742.49,365.31 C741.00,371.80 739.57,376.90 739.31,376.64 C738.67,376.01 741.34,349.83 745.62,314.65 C747.55,298.78 748.99,285.66 748.82,285.49 C748.46,285.15 708.16,279.99 703.51,279.69 L 700.51 279.50 L 698.98 291.00 L 697.45 302.50 L 680.97 302.35 L 664.50 302.20 L 664.23 276.10 L 663.97 250.00 L 639.50 250.00 L 615.03 250.00 L 614.76 281.25 L 614.50 312.50 L 599.08 312.78 C590.59,312.93 583.31,312.70 582.88,312.28 C582.46,311.85 581.34,304.52 580.39,296.00 C579.45,287.48 578.40,280.17 578.05,279.77 C577.30,278.88 530.93,284.63 529.96,285.73 C529.59,286.15 530.09,292.80 531.07,300.50 C533.78,321.71 533.81,323.43 531.47,323.77 C528.73,324.18 486.58,334.23 486.15,334.58 C485.95,334.74 489.89,353.24 494.90,375.69 C499.91,398.13 504.01,417.06 504.00,417.75 C504.00,418.68 500.93,419.00 492.00,419.00 C485.40,419.00 480.00,419.34 480.01,419.75 C480.01,420.16 480.68,425.45 481.49,431.50 C482.30,437.55 483.67,447.90 484.53,454.50 C485.39,461.10 488.34,482.92 491.09,503.00 C493.83,523.08 497.66,551.20 499.59,565.50 C501.52,579.80 503.30,592.40 503.55,593.50 C503.79,594.60 505.78,608.78 507.97,625.00 C512.60,659.41 516.87,689.55 517.55,692.73 C518.18,695.68 523.26,701.38 527.71,704.13 C530.49,705.85 541.47,710.85 542.74,710.98 C542.87,710.99 547.60,709.26 553.25,707.14 ZM 265.50 820.00 C264.56,818.47 268.19,812.73 271.05,811.21 C272.56,810.41 275.94,810.05 279.88,810.26 C285.62,810.58 286.56,810.94 289.19,813.89 C294.38,819.70 293.24,820.46 278.81,820.78 C270.70,820.96 265.92,820.68 265.50,820.00 ZM 454.00 818.90 C454.00,817.74 455.53,815.27 457.40,813.40 C460.53,810.27 461.28,810.00 467.00,810.00 C471.59,810.00 473.92,810.52 476.00,812.00 C478.74,813.95 481.42,819.25 480.25,820.41 C479.93,820.74 473.89,821.00 466.83,821.00 C454.46,821.00 454.00,820.92 454.00,818.90 ZM 686.14 820.11 C684.35,818.98 685.38,815.94 688.55,812.95 C690.52,811.11 692.47,810.50 697.50,810.18 C703.57,809.79 704.09,809.94 706.96,812.81 C712.99,818.84 710.29,821.01 696.82,820.98 C691.69,820.98 686.89,820.58 686.14,820.11 ZM 186.00 817.00 L 186.00 795.00 L 195.75 795.01 C208.33,795.01 212.49,796.22 217.65,801.38 C224.78,808.52 225.96,820.28 220.47,829.64 C216.35,836.67 210.50,838.98 196.75,838.99 L 186.00 839.00 L 186.00 817.00 ZM 208.39 828.04 C211.62,826.81 214.00,822.18 214.00,817.10 C214.00,808.76 209.98,805.00 201.05,805.00 L 196.00 805.00 L 196.00 817.00 L 196.00 829.00 L 200.93 829.00 C203.65,829.00 207.00,828.57 208.39,828.04 ZM 325.67 562.76 C321.34,558.43 321.04,540.76 325.21,535.47 C328.53,531.24 337.58,532.59 339.89,537.66 C340.50,539.00 341.00,544.06 341.00,548.90 C341.00,556.41 340.66,558.20 338.72,561.10 C336.82,563.93 335.73,564.55 332.23,564.81 C328.89,565.05 327.54,564.63 325.67,562.76 ZM 326.02 513.52 C324.68,512.09 323.40,509.13 323.01,506.54 C322.28,501.73 322.77,404.00 323.55,400.32 C324.32,396.64 326.81,395.00 331.62,395.00 C335.03,395.00 336.67,395.58 338.55,397.45 L 341.00 399.91 L 341.00 454.55 L 341.00 509.20 L 337.60 512.60 C333.41,516.79 329.39,517.11 326.02,513.52 ZM 539.47 693.06 C534.81,691.15 534.98,696.36 535.25,562.89 L 535.50 436.50 L 540.38 445.50 C547.07,457.83 550.27,462.35 558.07,470.50 L 564.76 477.50 L 565.06 518.50 C565.23,541.05 565.28,588.08 565.17,623.00 L 564.98 686.50 L 554.31 690.00 C541.48,694.21 542.00,694.10 539.47,693.06 ZM 738.77 693.44 C738.46,693.13 733.78,691.39 728.36,689.58 L 718.50 686.27 L 718.25 582.58 L 717.99 478.89 L 725.09 470.83 C732.89,461.97 740.18,451.29 743.92,443.22 C745.25,440.35 746.71,438.00 747.17,438.00 C747.63,438.00 748.00,494.91 748.00,564.47 L 748.00 690.95 L 745.05 692.47 C741.99,694.06 739.74,694.40 738.77,693.44 ZM 596.53 679.20 C596.24,678.91 596.00,638.19 596.00,588.73 C596.00,503.46 596.09,498.82 597.75,499.50 C604.22,502.14 614.24,505.31 619.41,506.36 L 625.50 507.59 L 625.76 592.19 L 626.01 676.78 L 615.76 677.49 C610.12,677.88 603.60,678.55 601.28,678.97 C598.96,679.39 596.82,679.49 596.53,679.20 ZM 668.00 677.61 L 657.50 676.50 L 657.24 592.27 L 656.99 508.04 L 659.74 507.42 C668.78,505.37 675.06,503.58 680.66,501.48 L 687.00 499.09 L 687.00 589.04 L 687.00 679.00 L 682.75 678.86 C680.41,678.78 673.78,678.21 668.00,677.61 Z" fill="rgb(252,252,252)"/>
</g>
</svg>